<svg width="18" height="16" viewBox="0 0 18 16" fill="none" xmlns="http://www.w3.org/2000/svg">
<path d="M17.8252 4.03601C18.7749 9.42168 11.5581 15.189 11.2498 15.429C11.1687 15.4931 11.073 15.536 10.9712 15.5539C10.8694 15.5718 10.7648 15.5643 10.6666 15.5319C10.2948 15.4118 1.54075 12.4605 0.591109 7.07485C0.369535 5.80991 0.658769 4.50873 1.39536 3.45678C2.13194 2.40482 3.25573 1.688 4.52016 1.46358C6.10893 1.18344 7.62044 1.62137 8.69117 2.62332C9.35463 1.31558 10.6252 0.387096 12.214 0.106953C13.4789 -0.114621 14.7801 0.174613 15.832 0.9112C16.884 1.64779 17.6008 2.77157 17.8252 4.03601Z" fill="#FA184F"/>
</svg>
