<svg width="222" height="236" viewBox="0 0 222 236" fill="none" xmlns="http://www.w3.org/2000/svg">
<path d="M220.523 0C200.486 16.3935 188.913 37.2121 182.036 62.6581C178.501 75.7375 176.282 88.9496 172.832 101.982C167.493 122.151 169.782 144.083 166.325 164.826C163.563 181.396 159.882 199.632 150.985 214.19C139.988 232.186 122.326 234.817 102.644 234.271C91.7525 233.968 79.0439 223.989 72.8952 215.864C67.8834 209.241 62.3532 201.311 59.8802 193.273C57.4918 185.511 50.3293 179.926 48.1666 172.356C44.8053 160.592 30.69 148.372 22.2295 139.912C16.4481 134.13 8.9123 129.709 1.3125 127.176" stroke="#BABABA" stroke-width="1.5" stroke-linecap="round" stroke-dasharray="10 10"/>
</svg>
