<svg width="90" height="66" viewBox="0 0 90 66" fill="none" xmlns="http://www.w3.org/2000/svg">
<path d="M-6.5746 52.408C-0.762296 54.4292 11.7589 57.4518 29.5419 59.8326C42.2831 61.5384 70.2702 63.0237 72.9273 59.8889C74.5477 57.5251 69.4766 53.6853 68.3083 53.3019C63.5321 51.7344 60.4838 51.2104 55.6032 50.1497C53.8688 49.7724 52.1067 49.5589 50.3438 49.3153C49.5633 49.2075 47.9797 49.3114 47.9797 49.3114C47.9797 49.3114 49.4546 48.6934 50.2349 48.5479C51.7211 48.2707 53.1172 47.7919 54.5817 47.4287C60.1033 46.0583 65.837 45.0919 71.2009 43.0603C73.242 42.2871 75.5209 40.1598 73.7515 37.8232C72.2903 35.8935 69.4036 36.1394 67.1941 36.2723C62.151 36.5759 56.9925 38.1683 52.1668 39.658L51.8806 39.7463C49.1862 40.5778 44.5766 42.8217 44.5766 42.8217C44.5766 42.8217 49.7819 38.9247 50.0988 38.6404C51.3892 37.4824 52.9811 36.6963 54.2858 35.5642C55.3049 34.6797 56.2487 33.7943 57.3308 32.9749C60.1877 30.8115 70.0929 23.0757 62.5563 20.0457C60.2957 19.1369 57.3503 20.1635 55.1508 20.7426C48.9401 22.3783 44.4144 27.4116 40.1743 31.8947C38.6611 33.4949 37.1836 35.4178 36.4959 37.5136C36.2289 38.3271 35.8412 39.1399 35.7242 39.9865L36.0156 37.877C36.2157 36.4285 36.2876 34.9795 36.4022 33.5234C36.8774 27.4815 36.9538 21.7955 35.8385 15.8175C35.4913 13.9567 35.6491 10.5779 33.0135 10.5902C30.4838 10.6017 28.6525 13.3919 27.6293 15.3284C25.7359 18.9119 22.9458 31.2347 24.2886 41.8464C22.7082 39.1276 21.1402 36.5655 19.358 33.9636C17.3472 31.0274 15.5567 27.8258 13.1585 25.153C11.4341 23.2309 9.31271 21.7954 7.53279 19.9688C5.59032 17.9755 3.03626 15.4697 0.0335714 16.6756C-3.88565 18.2494 -0.331364 23.1116 0.901152 25.1794C3.6891 29.8572 6.6899 34.8373 10.1656 39.0356C12.0649 41.3295 14.57 43.2306 16.3548 45.5875C16.5393 45.8308 15.918 45.1606 15.6894 44.9581C15.1316 44.4636 14.5928 43.9799 14.0713 43.4446C12.5052 41.8377 10.9779 40.2733 9.35102 38.7082C5.3303 34.8396 -0.519126 31.369 -5.83971 29.6227C-7.47981 29.0843 -9.89927 28.0787 -11.6408 28.8214C-14.0712 29.8579 -11.1856 33.1714 -10.307 33.9501C-6.12291 37.6589 -3.43307 41.0961 1.32277 44.0481L9.71632 49.2923C9.71632 49.2923 3.08182 46.4942 2.60838 46.2778C-2.32024 44.025 -5.93172 43.0459 -11.2472 42.3116C-12.751 42.1039 -16.4105 43.2096 -16.1391 45.7205C-15.8035 48.8247 -9.29409 51.4625 -6.5746 52.408Z" fill="#FBAC37" fill-opacity="0.5"/>
</svg>
