<svg width="531" height="268" viewBox="0 0 531 268" fill="none" xmlns="http://www.w3.org/2000/svg">
<path d="M553.881 0.878906C541.927 23.7003 518.177 39.1752 498.664 55.1756C463.592 83.9341 425.937 104.263 383.935 121.538C343.843 138.028 302.29 151.091 261.64 166.121C228.046 178.542 187.517 186.562 152.002 185.038C122.645 183.778 94.7524 183.148 67.502 172C48.502 164.227 40.9725 151.268 42.002 139.944C43.6987 121.279 60.6981 107.068 79.0147 117.244C86.9001 121.624 92.3077 124 101.002 141.5C103.009 156.556 104.768 169.613 102.84 185.038C101.562 195.258 96.7795 206.285 92.3077 215.407C88.7625 222.639 83.155 227.915 79.4237 234.631C73.3634 245.539 56.7152 256.197 45.8845 263.16C32.7757 271.587 17.7066 280.645 1.71094 280.645" stroke="#BABABA" stroke-width="1.5" stroke-linecap="round" stroke-dasharray="10 10"/>
</svg>
