<svg width="117" height="54" viewBox="0 0 117 54" fill="none" xmlns="http://www.w3.org/2000/svg">
<path d="M105.467 41.8186C105.191 41.0312 103.804 37.5797 100.744 35.6341C98.7196 34.3468 96.4306 33.5242 94.207 32.6239C92.6022 31.9742 85.5542 29.9038 83.5228 28.412C76.9329 23.574 74.294 14.6823 66.6997 10.8806C60.7505 7.9026 54.061 10.861 47.8116 9.93976C40.2544 8.82536 34.3979 3.23724 27.0921 1.46022C22.8089 0.418381 19.3 2.52281 15.2085 3.14271C10.1779 3.90453 10.3314 2.77214 5.32709 1.07542C3.98603 0.620664 2.30682 -0.531819 1.15285 0.28847C-0.464755 1.43884 1.00653 4.26536 1.17422 6.24326C1.63174 11.6424 5.21675 16.541 8.21246 20.7282C11.2489 24.9725 15.5585 29.8984 19.2484 33.7216C20.8938 35.4266 24.1691 38.9599 26.74 40.2387C30.8632 42.2887 35.8631 41.528 40.3822 42.4124C46.0122 43.5141 49.7314 48.6261 55.4996 49.6002C60.2295 50.3989 64.7178 47.4256 69.437 48.3597C74.4212 49.3461 78.5638 53.4974 83.8442 53.3592C86.2712 53.2956 88.6818 52.9966 91.0894 52.6503L93.1906 52.3406C95.9622 51.9284 98.7348 51.526 101.528 51.4207C106.658 51.2276 110.607 54.4921 115.66 51.8451C118.067 50.5841 113.951 49.0613 113.588 48.9272L113.578 48.9236C111.859 48.2862 110.576 47.8833 108.974 46.9915C108.195 46.5577 105.578 42.1381 105.467 41.8186Z" fill="#E0B48F"/>
</svg>
