<svg width="514" height="132" viewBox="0 0 514 132" fill="none" xmlns="http://www.w3.org/2000/svg">
<path d="M1.27344 0C1.92814 6.54705 7.1524 13.2063 10.8853 18.4057C20.5059 31.8059 29.1139 46.2461 40.8456 57.9778C56.8095 73.9417 71.5952 83.8336 91.8702 93.9711C134.106 115.089 176.469 119.506 222.244 126.181C260.86 131.813 301.44 132.46 340.142 128.942C372.325 126.016 403.831 121.792 435.852 116.365C452.508 113.542 467.694 107.084 483.911 103.481C493.016 101.457 501.35 98.8866 510.088 95.7094C513.615 94.4267 520.87 93.7912 523.585 91.6193C527.727 88.3056 540.462 84.666 546.081 84.666" stroke="#BABABA" stroke-width="1.5" stroke-linecap="round" stroke-dasharray="10 10"/>
</svg>
