<svg width="29" height="27" viewBox="0 0 29 27" fill="none" xmlns="http://www.w3.org/2000/svg">
<path fill-rule="evenodd" clip-rule="evenodd" d="M28.8948 8.7925C28.692 11.375 26.8331 13.431 24.4419 14.0005C26.7141 14.9367 28.2285 17.2574 28.0257 19.8394L26.0318 19.6827C26.1971 17.5789 24.6256 15.7395 22.5218 15.5742L20.4983 15.4153C21.3763 16.6572 21.8416 18.2015 21.7132 19.8363C21.4213 23.5518 18.1727 26.3272 14.4572 26.0353C11.5585 25.8076 9.23201 23.7803 8.48775 21.1357C7.58629 21.7209 6.4921 22.0249 5.33784 21.9342L4.85722 21.8965C2.07011 21.6775 -0.011807 19.2406 0.207133 16.4535C0.351268 14.6187 1.45668 13.0895 2.99044 12.3212C1.59563 11.3228 0.742694 9.63981 0.886819 7.80509C1.10576 5.01798 3.54265 2.93606 6.32976 3.155L6.81037 3.19276C7.96485 3.28345 8.99833 3.75469 9.79741 4.47374C10.9451 1.97681 13.5601 0.336858 16.4594 0.564612C20.1749 0.856482 22.9504 4.10511 22.6585 7.82063C22.5305 9.45034 21.8336 10.8992 20.778 11.9877L22.7925 12.1459C24.8963 12.3112 26.7357 10.7397 26.901 8.63587L28.8948 8.7925Z" fill="#4BC1F3"/>
</svg>
