<svg width="157" height="22" viewBox="0 0 157 22" fill="none" xmlns="http://www.w3.org/2000/svg">
<path fill-rule="evenodd" clip-rule="evenodd" d="M32.0314 0H2.36715C1.06104 0 0 1.06194 0 2.36714V19.6329C0 20.9381 1.06104 22 2.36715 22H32.0323C33.3366 22 34.3995 20.9381 34.3995 19.6329V2.36714C34.3986 1.06194 33.3366 0 32.0314 0ZM11.0054 10.6472C10.9093 10.5655 10.8088 10.4704 10.6948 10.3582L10.6944 10.3578C10.1962 9.87036 9.5158 9.20467 8.23339 9.20467C6.95136 9.20467 6.26918 9.87087 5.77105 10.3573L5.7702 10.3582C5.32585 10.7917 5.08977 11 4.56194 11C4.03411 11 3.81149 10.8034 3.35727 10.3591C2.99282 10.0009 2.52424 9.54757 1.79533 9.33034V6.93985C1.88869 7.02154 1.98833 7.1167 2.10233 7.22801C2.59874 7.71544 3.27917 8.3824 4.56194 8.3824C5.84397 8.3824 6.52615 7.7162 7.02428 7.22974L7.02513 7.2289C7.46858 6.79623 7.70556 6.58707 8.23339 6.58707C8.76122 6.58707 8.99641 6.79443 9.43986 7.2289C9.8061 7.58617 10.2729 8.04039 11.0054 8.25673V10.6472ZM2.10233 11.6409C2.59785 12.1284 3.27828 12.7953 4.56194 12.7953C5.84397 12.7953 6.5252 12.1301 7.02324 11.6437L7.02513 11.6418C7.46858 11.2083 7.70556 11 8.23339 11C8.76122 11 8.99641 11.2074 9.43986 11.6418C9.8061 11.9991 10.2729 12.4533 11.0054 12.6697V15.061C10.9093 14.9794 10.8088 14.8842 10.6948 14.772L10.6944 14.7716C10.1962 14.2842 9.5158 13.6185 8.23339 13.6185C6.95136 13.6185 6.26918 14.2847 5.77105 14.7712L5.7702 14.772C5.32675 15.2047 5.08977 15.4138 4.56194 15.4138C4.03411 15.4138 3.81149 15.2172 3.35727 14.7729C2.99282 14.4147 2.52424 13.9614 1.79533 13.7442V11.3528C1.88779 11.4336 1.98833 11.5296 2.10233 11.6409ZM2.36715 1.79533H11.0054V6.23519C10.9093 6.1535 10.8088 6.05835 10.6948 5.94614L10.6944 5.94573C10.1962 5.45834 9.5158 4.79264 8.23339 4.79264C6.95136 4.79264 6.26919 5.45884 5.77106 5.9453L5.7702 5.94614C5.32675 6.37882 5.08977 6.58797 4.56194 6.58797C4.03411 6.58797 3.81149 6.39138 3.35727 5.94704C2.99282 5.58887 2.52424 5.13555 1.79533 4.91831V2.36625C1.79533 2.05117 2.05117 1.79533 2.36715 1.79533ZM1.79533 19.6329V15.7648C1.88869 15.8465 1.98833 15.9417 2.10233 16.053C2.59874 16.5404 3.27917 17.2074 4.56194 17.2074C5.84397 17.2074 6.52615 16.5412 7.02428 16.0547L7.02513 16.0539C7.46858 15.6212 7.70556 15.412 8.23339 15.412C8.76122 15.412 8.99641 15.6194 9.43986 16.0539C9.8061 16.4111 10.2729 16.8653 11.0054 17.0817V20.2047H2.36715C2.05117 20.2047 1.79533 19.9488 1.79533 19.6329ZM32.6032 19.6329C32.6032 19.9488 32.3474 20.2047 32.0314 20.2047H12.8007V1.79533H32.0323C32.3483 1.79533 32.6041 2.05117 32.6041 2.36714L32.6032 19.6329ZM26.2803 6.41471C25.9068 6.29986 25.5145 6.26089 25.126 6.30006C24.7375 6.33923 24.3606 6.45576 24.0172 6.64287C23.5775 6.88968 23.1935 7.22579 22.8895 7.62988C22.5855 7.22532 22.2011 6.88892 21.7609 6.64208C21.4177 6.45521 21.041 6.33888 20.6528 6.29984C20.2646 6.26079 19.8725 6.29981 19.4993 6.41463C17.935 6.88541 16.9344 8.47045 17.0663 10.2691C17.1316 11.153 17.4507 12.0419 18.015 12.9119C18.7787 14.0897 19.9016 15.1909 21.4476 16.2776C22.7968 17.3186 22.9856 17.3154 24.3323 16.2776C25.8783 15.1909 27.0013 14.0897 27.7649 12.9119C28.3292 12.0416 28.6483 11.153 28.7128 10.2691C28.7208 10.1623 28.7243 10.0561 28.7243 9.95068C28.724 8.28638 27.7516 6.85736 26.2803 6.41471ZM27.2739 10.256C27.2419 10.5557 27.1723 10.8503 27.0668 11.1327C27.0247 11.245 26.9786 11.3556 26.9287 11.4644L27.2739 10.256Z" fill="#9A2143"/>
<path d="M101.465 19.132V19.0455V17.3868V17.2275L101.613 17.2867C101.646 17.2997 101.703 17.3178 101.787 17.3408C101.878 17.3636 101.981 17.3864 102.096 17.4094C102.219 17.4324 102.349 17.4554 102.487 17.4785C102.623 17.4935 102.754 17.5009 102.881 17.5009C103.309 17.5009 103.632 17.3692 103.865 17.1153L103.865 17.1152C104.116 16.8424 104.347 16.4179 104.555 15.8328C104.555 15.8325 104.555 15.8323 104.555 15.8321L104.893 14.8412C104.893 14.8411 104.893 14.841 104.894 14.8409C105.007 14.5012 105.124 14.1469 105.244 13.7779C105.045 13.1895 104.827 12.5749 104.591 11.9339L104.59 11.9329C104.357 11.2793 104.116 10.6218 103.867 9.96046L103.867 9.96008C103.618 9.29061 103.369 8.62893 103.119 7.97505L103.119 7.97465C102.87 7.31315 102.625 6.67504 102.384 6.06033L102.383 6.05922L102.383 6.05922C102.15 5.44453 101.924 4.86495 101.707 4.32048L101.706 4.31924L101.706 4.31924C101.496 3.77427 101.305 3.28388 101.134 2.84803L101.076 2.70075H101.234H103.407H103.492L103.512 2.78276C103.659 3.3802 103.846 4.052 104.071 4.79826C104.297 5.54502 104.534 6.30348 104.783 7.07365C105.04 7.84434 105.293 8.59945 105.542 9.339C105.747 9.94219 105.937 10.4951 106.11 10.9977C106.334 10.2554 106.555 9.51303 106.773 8.77069C107.022 7.92232 107.252 7.12073 107.462 6.36591C107.672 5.60336 107.855 4.91497 108.01 4.30069L108.01 4.29977C108.174 3.67744 108.298 3.1728 108.383 2.78542L108.402 2.70075H108.488H110.661H110.811L110.763 2.84301C110.506 3.60625 110.206 4.49408 109.864 5.50649C109.521 6.51848 109.155 7.61616 108.766 8.79955C108.385 9.97494 107.992 11.2127 107.587 12.5127L107.587 12.5129C107.182 13.8049 106.789 15.1085 106.408 16.4239L106.408 16.4241C106.132 17.3705 105.726 18.0881 105.184 18.5655L101.465 19.132ZM101.465 19.132L101.55 19.1508C101.626 19.1678 101.804 19.1917 102.073 19.2226L101.465 19.132Z" fill="#9A2143" stroke="#9A2143" stroke-width="0.215686"/>
<path d="M100.878 4.77282H100.986V4.66497V2.51562V2.40778H100.878C100.545 2.40778 100.176 2.47269 99.771 2.59963C99.3673 2.72627 98.9644 2.8962 98.5621 3.10912C98.1597 3.31433 97.7732 3.55495 97.4026 3.83088L97.4026 3.83087L97.4017 3.83155C97.1299 4.03838 96.8882 4.2503 96.6769 4.46741C96.688 4.22569 96.6991 4.00195 96.7102 3.79615C96.7336 3.50761 96.757 3.18039 96.7803 2.81453L96.7877 2.69981H96.6727H94.5H94.3859L94.3923 2.81371C94.4312 3.50606 94.4623 4.1867 94.4857 4.85563L94.4857 4.85563L94.4857 4.85694C94.5168 5.51802 94.5402 6.18299 94.5557 6.85187L94.5557 6.85187L94.5558 6.85317C94.5791 7.51422 94.5947 8.18698 94.6024 8.87144L94.6024 8.87146C94.6102 9.54853 94.6141 10.249 94.6141 10.9728C94.6141 11.6967 94.6102 12.3855 94.6024 13.0391C94.5947 13.6924 94.5791 14.334 94.5558 14.9638L94.5558 14.9638L94.5557 14.9652C94.5402 15.5951 94.5168 16.2289 94.4857 16.8666H94.4857L94.4857 16.8679C94.4623 17.4979 94.4312 18.1592 94.3923 18.8516L94.3859 18.9655H94.5H96.661H96.7751L96.7687 18.8516C96.7298 18.1588 96.6947 17.4971 96.6636 16.8665C96.6325 16.2289 96.6092 15.5951 96.5936 14.9652C96.5781 14.3349 96.5664 13.6928 96.5586 13.0391C96.5508 12.3855 96.5469 11.6967 96.5469 10.9728C96.5469 9.44959 96.57 7.93789 96.6161 6.43774C96.9602 5.88974 97.4949 5.47537 98.2294 5.19807C98.9777 4.91555 99.8598 4.77282 100.878 4.77282ZM94.6635 6.84936C94.648 6.17964 94.6246 5.51381 94.5934 4.85187L94.6635 6.84936Z" fill="#9A2143" stroke="#9A2143" stroke-width="0.215686"/>
<path d="M92.2571 14.6081L92.2571 14.608C92.5167 13.546 92.6457 12.291 92.6457 10.8443C92.6457 9.40545 92.5167 8.15815 92.2571 7.10393C91.998 6.04421 91.6357 5.16351 91.1675 4.4651C90.7077 3.76759 90.1616 3.2479 89.528 2.91101C88.8969 2.57551 88.2175 2.40778 87.4915 2.40778C86.758 2.40778 86.0747 2.57541 85.4434 2.91101C84.8099 3.24784 84.26 3.76741 83.7925 4.46474L83.7925 4.46474L83.792 4.46545C83.3319 5.16352 82.9696 6.04387 82.7028 7.10338L82.7026 7.10393C82.443 8.15815 82.314 9.40545 82.314 10.8443C82.314 12.291 82.443 13.546 82.7026 14.608L82.7028 14.6089C82.9697 15.6606 83.332 16.537 83.792 17.2349L83.792 17.2349L83.7928 17.2361C84.2604 17.9256 84.8102 18.441 85.4434 18.7777C86.0747 19.1133 86.758 19.2809 87.4915 19.2809C88.2175 19.2809 88.8969 19.1132 89.528 18.7777C90.1614 18.4409 90.7074 17.9253 91.1673 17.2355C91.6355 16.5372 91.9979 15.6603 92.2571 14.6081ZM89.5553 5.63441L89.5556 5.63494C89.8224 6.18383 90.0342 6.88992 90.1889 7.7561C90.3432 8.62029 90.4208 9.64936 90.4208 10.8443C90.4208 12.0472 90.3432 13.0801 90.1889 13.9443C90.0342 14.8105 89.8224 15.5165 89.5556 16.0654C89.2882 16.6155 88.975 17.0161 88.6196 17.2753C88.2709 17.5274 87.8958 17.6518 87.4915 17.6518C87.0793 17.6518 86.6963 17.5273 86.3401 17.2752C85.9922 17.0158 85.679 16.615 85.4039 16.0649C85.1372 15.5161 84.9255 14.8102 84.7708 13.9443C84.6165 13.0801 84.5389 12.0472 84.5389 10.8443C84.5389 9.64936 84.6165 8.62029 84.7708 7.7561C84.9255 6.89006 85.1372 6.18406 85.404 5.6352C85.6795 5.07663 85.9928 4.6764 86.3399 4.42528L86.3402 4.42504C86.6968 4.16506 87.0797 4.0369 87.4915 4.0369C87.8951 4.0369 88.2699 4.16473 88.6186 4.42439L88.6186 4.42442L88.6207 4.4259C88.9749 4.67683 89.2878 5.07653 89.5553 5.63441Z" fill="#9A2143" stroke="#9A2143" stroke-width="0.215686"/>
<path d="M72.5293 7.99877L72.5293 7.99781C72.4982 7.08985 72.4246 6.34463 72.3093 5.76053L72.309 5.75894L72.309 5.75894C72.2012 5.16613 72.0416 4.73701 71.8377 4.46028C71.6408 4.19315 71.3739 4.06026 71.025 4.06026C70.9019 4.06026 70.7477 4.09126 70.5599 4.15878C70.3803 4.22619 70.1877 4.32045 69.982 4.44236L69.9809 4.443L69.9809 4.44299C69.7841 4.55651 69.5825 4.69715 69.376 4.86539L69.3741 4.86693L69.3741 4.86691C69.1781 5.01939 68.9888 5.18221 68.8064 5.35538C68.7685 6.28217 68.7418 7.20519 68.7265 8.12442L68.7265 8.12443C68.711 9.05051 68.7032 9.99998 68.7032 10.9728C68.7032 11.6967 68.7071 12.3855 68.7149 13.0391C68.7226 13.6928 68.7343 14.3349 68.7499 14.9652C68.7654 15.5951 68.7888 16.2289 68.8199 16.8666C68.851 17.4971 68.886 18.1588 68.925 18.8516L68.9313 18.9655H68.8173H66.6562H66.5422L66.5486 18.8516C66.5875 18.1592 66.6186 17.4979 66.6419 16.8679L66.642 16.8666H66.642C66.6731 16.2289 66.6964 15.5951 66.712 14.9652L66.712 14.9638L66.712 14.9638C66.7353 14.334 66.7509 13.6924 66.7587 13.0391C66.7665 12.3855 66.7704 11.6967 66.7704 10.9728C66.7704 10.249 66.7665 9.54853 66.7587 8.87146L66.7587 8.87144C66.7509 8.18698 66.7353 7.51422 66.712 6.85317L66.712 6.85187L66.712 6.85187C66.6964 6.18299 66.6731 5.51802 66.642 4.85694L66.6419 4.85563L66.6419 4.85563C66.6186 4.1867 66.5875 3.50606 66.5486 2.81371L66.5422 2.69981H66.6562H68.829H68.9434L68.9366 2.81406L68.8933 3.54221C69.2649 3.23718 69.6599 2.98328 70.0783 2.78082C70.5811 2.53346 71.0761 2.40778 71.5624 2.40778C72.1657 2.40778 72.6905 2.56492 73.1315 2.88311C73.5423 3.16722 73.8637 3.58185 74.0987 4.1204C74.3018 3.9126 74.5159 3.71593 74.7412 3.53041L74.7424 3.52944L74.7424 3.52945C75.0188 3.30835 75.2996 3.11451 75.5848 2.94813L75.5859 2.94748L75.5859 2.94749C75.8802 2.78047 76.1791 2.64884 76.4827 2.55296L76.4835 2.55272L76.4835 2.55273C76.7964 2.45644 77.1031 2.40778 77.403 2.40778C78.3636 2.40778 79.1139 2.79391 79.641 3.56392C80.1732 4.32227 80.4311 5.4424 80.4311 6.90777C80.4311 7.26647 80.4273 7.6523 80.4195 8.06524C80.4195 8.47053 80.4156 8.87195 80.4078 9.2695L80.4078 9.26954C80.4 9.65852 80.3922 10.0203 80.3844 10.355V10.3557V10.3577V10.3596V10.3616V10.3635V10.3655V10.3674V10.3694V10.3713V10.3733V10.3752V10.3772V10.3791V10.3811V10.383V10.3849V10.3869V10.3888V10.3908V10.3927V10.3946V10.3966V10.3985V10.4004V10.4023V10.4043V10.4062V10.4081V10.41V10.412V10.4139V10.4158V10.4177V10.4196V10.4215V10.4234V10.4254V10.4273V10.4292V10.4311V10.433V10.4349V10.4368V10.4387V10.4406V10.4425V10.4444V10.4463V10.4482V10.4501V10.4519V10.4538V10.4557V10.4576V10.4595V10.4614V10.4633V10.4651V10.467V10.4689V10.4708V10.4726V10.4745V10.4764V10.4783V10.4801V10.482V10.4839V10.4857V10.4876V10.4895V10.4913V10.4932V10.495V10.4969V10.4987V10.5006V10.5024V10.5043V10.5061V10.508V10.5098V10.5117V10.5135V10.5154V10.5172V10.519V10.5209V10.5227V10.5245V10.5264V10.5282V10.53V10.5319V10.5337V10.5355V10.5374V10.5392V10.541V10.5428V10.5446V10.5465V10.5483V10.5501V10.5519V10.5537V10.5555V10.5573V10.5591V10.5609V10.5627V10.5645V10.5663V10.5681V10.5699V10.5717V10.5735V10.5753V10.5771V10.5789V10.5807V10.5825V10.5843V10.5861V10.5879V10.5896V10.5914V10.5932V10.595V10.5968V10.5985V10.6003V10.6021V10.6039V10.6056V10.6074V10.6092V10.6109V10.6127V10.6145V10.6162V10.618V10.6197V10.6215V10.6232V10.625V10.6268V10.6285V10.6303V10.632V10.6338V10.6355V10.6372V10.639V10.6407V10.6425V10.6442V10.6459V10.6477V10.6494V10.6512V10.6529V10.6546V10.6563V10.6581V10.6598V10.6615V10.6632V10.665V10.6667V10.6684V10.6701V10.6718V10.6736V10.6753V10.677V10.6787V10.6804V10.6821V10.6838V10.6855V10.6872V10.6889V10.6906V10.6923V10.694V10.6957V10.6974V10.6991V10.7008V10.7025V10.7042V10.7059V10.7075V10.7092V10.7109V10.7126V10.7143V10.716V10.7176V10.7193V10.721V10.7227V10.7243V10.726V10.7277V10.7293V10.731V10.7327V10.7343V10.736V10.7377V10.7393V10.741V10.7426V10.7443V10.7459V10.7476V10.7492V10.7509V10.7525V10.7542V10.7558V10.7575V10.7591V10.7608V10.7624V10.764V10.7657V10.7673V10.7689V10.7706V10.7722V10.7738V10.7755V10.7771V10.7787V10.7803V10.7819V10.7836V10.7852V10.7868V10.7884V10.79V10.7917V10.7933V10.7949V10.7965V10.7981V10.7997V10.8013V10.8029V10.8045V10.8061V10.8077V10.8093V10.8109V10.8125V10.8141V10.8157V10.8173V10.8189V10.8204V10.822V10.8236V10.8252V10.8268V10.8284V10.8299V10.8315V10.8331V10.8347V10.8362V10.8378V10.8394V10.841V10.8425V10.8441V10.8457V10.8472V10.8488V10.8503V10.8519V10.8535V10.855V10.8566V10.8581V10.8597V10.8612V10.8628V10.8643V10.8659V10.8674V10.869V10.8705V10.872V10.8736V10.8751V10.8767V10.8782V10.8797V10.8813V10.8828V10.8843V10.8858V10.8874V10.8889V10.8904V10.8919V10.8935V10.895V10.8965V10.898V10.8995V10.901V10.9026V10.9041V10.9056V10.9071V10.9086V10.9101V10.9116V10.9131V10.9146V10.9161V10.9176V10.9191V10.9206V10.9221V10.9236V10.9251V10.9266V10.9281V10.9295V10.931V10.9325V10.934V10.9355V10.9369V10.9384V10.9399V10.9414V10.9429V10.9443V10.9458V10.9473V10.9487V10.9502V10.9517V10.9531V10.9546V10.9561V10.9575V10.959V10.9604V10.9619V10.9633V10.9648V10.9662V10.9677V10.9691V10.9706V10.972V10.9735V10.9749V10.9764V10.9778V10.9792V10.9807V10.9821V10.9835V10.985V10.9864V10.9878V10.9893V10.9907V10.9921V10.9935V10.995V10.9964V10.9978V10.9992V11.0006V11.002V11.0035V11.0049V11.0063V11.0077V11.0091V11.0105V11.0119V11.0133V11.0147V11.0161V11.0175V11.0189V11.0203V11.0217V11.0231V11.0245V11.0259V11.0273V11.0287V11.0301V11.0314V11.0328V11.0342V11.0356V11.037V11.0383V11.0397V11.0411V11.0425V11.0438V11.0452V11.0466V11.0479V11.0493V11.0507V11.052V11.0534V11.0548V11.0561V11.0575V11.0588V11.0602V11.0616V11.0629V11.0643V11.0656V11.067V11.0683V11.0696V11.071V11.0723V11.0737V11.075V11.0764V11.0777V11.079V11.0804V11.0817V11.083V11.0844V11.0857V11.087V11.0883V11.0897V11.091V11.0923V11.0936V11.0949V11.0963V11.0976V11.0989V11.1002V11.1015V11.1028V11.1041V11.1054V11.1067V11.108V11.1093V11.1106V11.1119V11.1132V11.1145V11.1158V11.1171V11.1184V11.1197V11.121V11.1223V11.1236V11.1249V11.1261V11.1274V11.1287V11.13V11.1313V11.1325V11.1338V11.1351V11.1364V11.1376V11.1389V11.1402V11.1414V11.1427V11.144V11.1452V11.1465V11.1478V11.149V11.1503V11.1515V11.1528V11.154V11.1553V11.1565V11.1578V11.159V11.1603V11.1615V11.1628V11.164V11.1652V11.1665V11.1677V11.169V11.1702V11.1714C80.3844 11.8953 80.3883 12.5723 80.3961 13.2026C80.4039 13.833 80.4155 14.4516 80.4311 15.0585C80.4467 15.6653 80.4661 16.2759 80.4894 16.8904C80.5206 17.5052 80.5556 18.159 80.5945 18.8516L80.6009 18.9655H80.4868H78.3375H78.2234L78.2298 18.8516C78.2687 18.1587 78.3038 17.5048 78.3349 16.8898C78.366 16.275 78.3933 15.6641 78.4166 15.0571C78.4399 14.4511 78.4516 13.8334 78.4516 13.204V13.2026H78.4516C78.4594 12.5728 78.4594 11.8961 78.4516 11.1726M72.5293 7.99877L78.5594 11.1714M72.5293 7.99877C72.5682 8.90074 72.5954 9.9587 72.611 11.1728M72.5293 7.99877L72.611 11.1728M78.4516 11.1726L78.5594 11.1714M78.4516 11.1726C78.4516 11.1727 78.4516 11.1727 78.4516 11.1728L78.5594 11.1714M78.4516 11.1726C78.436 9.95857 78.4088 8.90068 78.3699 7.99877L78.3699 7.99781C78.3388 7.08985 78.2652 6.34463 78.1499 5.76053L78.1496 5.75894L78.1496 5.75894C78.0418 5.16613 77.8822 4.73701 77.6783 4.46028C77.4815 4.19315 77.2145 4.06026 76.8657 4.06026C76.729 4.06026 76.5646 4.09805 76.3703 4.18023L76.3671 4.18162L76.367 4.18157C76.1721 4.25654 75.964 4.36225 75.7427 4.49961L75.7418 4.50017C75.5286 4.62965 75.3068 4.78633 75.0764 4.97058M78.5594 11.1714C78.5439 9.95657 78.5166 8.89748 78.4777 7.99413C78.4465 7.08299 78.3725 6.3315 78.2557 5.73965C78.1467 5.14001 77.9832 4.69223 77.7651 4.3963C77.5471 4.10038 77.2472 3.95242 76.8657 3.95242C76.7099 3.95242 76.5308 3.99525 76.3283 4.08091C76.1258 4.15879 75.9117 4.26781 75.6859 4.40799C75.4678 4.54037 75.242 4.70002 75.0083 4.88692M75.0764 4.97058C75.0766 4.97038 75.0769 4.97019 75.0771 4.97L75.0083 4.88692M75.0764 4.97058C75.0762 4.97076 75.0759 4.97094 75.0757 4.97113L75.0083 4.88692M75.0764 4.97058C74.8681 5.143 74.6734 5.32543 74.4922 5.51785M75.0083 4.88692C74.7825 5.07382 74.5722 5.2724 74.3776 5.48266M78.3375 18.8577C78.3395 18.8216 78.3415 18.7857 78.3435 18.7498H78.3375V18.8577ZM78.3375 18.8577L78.4452 18.8637C78.4453 18.8617 78.4454 18.8597 78.4455 18.8577H78.3375ZM80.4868 18.8577L80.3792 18.8637C80.3791 18.8617 80.3789 18.8597 80.3788 18.8577H80.4868ZM80.4868 18.8577V18.7498H80.4808C80.4828 18.7857 80.4848 18.8216 80.4868 18.8577ZM74.3776 5.48266L74.484 5.46555C74.4868 5.48292 74.4896 5.50036 74.4922 5.51785M74.3776 5.48266C74.4476 5.91876 74.4827 6.3938 74.4827 6.90777C74.4827 7.266 74.4788 7.65148 74.471 8.06421M74.3776 5.48266L74.4567 5.55593C74.4685 5.54319 74.4803 5.5305 74.4922 5.51785M74.4922 5.51785C74.5579 5.94594 74.5905 6.40934 74.5905 6.90777C74.5905 7.26647 74.5866 7.6523 74.5788 8.06524M74.471 8.06421H74.5788C74.5788 8.06456 74.5788 8.0649 74.5788 8.06524M74.471 8.06421C74.471 8.46916 74.4671 8.87022 74.4593 9.26738C74.4515 9.65676 74.4437 10.0189 74.436 10.3537M74.471 8.06421L74.5788 8.06625C74.5788 8.06591 74.5788 8.06557 74.5788 8.06524M74.5788 8.06524C74.5788 8.47053 74.5749 8.87195 74.5671 9.2695L74.5671 9.26954C74.5594 9.65853 74.5516 10.0203 74.5438 10.355M74.5438 10.355V10.3537H74.436M74.5438 10.355C74.5438 10.3554 74.5438 10.3558 74.5438 10.3562L74.436 10.3537M74.5438 10.355V10.3557V10.3577V10.3596V10.3616V10.3635V10.3655V10.3674V10.3694V10.3713V10.3733V10.3752V10.3772V10.3791V10.3811V10.383V10.3849V10.3869V10.3888V10.3908V10.3927V10.3946V10.3966V10.3985V10.4004V10.4023V10.4043V10.4062V10.4081V10.41V10.412V10.4139V10.4158V10.4177V10.4196V10.4215V10.4234V10.4254V10.4273V10.4292V10.4311V10.433V10.4349V10.4368V10.4387V10.4406V10.4425V10.4444V10.4463V10.4482V10.4501V10.4519V10.4538V10.4557V10.4576V10.4595V10.4614V10.4633V10.4651V10.467V10.4689V10.4708V10.4726V10.4745V10.4764V10.4783V10.4801V10.482V10.4839V10.4857V10.4876V10.4895V10.4913V10.4932V10.495V10.4969V10.4987V10.5006V10.5024V10.5043V10.5061V10.508V10.5098V10.5117V10.5135V10.5154V10.5172V10.519V10.5209V10.5227V10.5245V10.5264V10.5282V10.53V10.5319V10.5337V10.5355V10.5374V10.5392V10.541V10.5428V10.5446V10.5465V10.5483V10.5501V10.5519V10.5537V10.5555V10.5573V10.5591V10.5609V10.5627V10.5645V10.5663V10.5681V10.5699V10.5717V10.5735V10.5753V10.5771V10.5789V10.5807V10.5825V10.5843V10.5861V10.5879V10.5896V10.5914V10.5932V10.595V10.5968V10.5985V10.6003V10.6021V10.6039V10.6056V10.6074V10.6092V10.6109V10.6127V10.6145V10.6162V10.618V10.6197V10.6215V10.6232V10.625V10.6268V10.6285V10.6303V10.632V10.6338V10.6355V10.6372V10.639V10.6407V10.6425V10.6442V10.6459V10.6477V10.6494V10.6512V10.6529V10.6546V10.6563V10.6581V10.6598V10.6615V10.6632V10.665V10.6667V10.6684V10.6701V10.6718V10.6736V10.6753V10.677V10.6787V10.6804V10.6821V10.6838V10.6855V10.6872V10.6889V10.6906V10.6923V10.694V10.6957V10.6974V10.6991V10.7008V10.7025V10.7042V10.7059V10.7075V10.7092V10.7109V10.7126V10.7143V10.716V10.7176V10.7193V10.721V10.7227V10.7243V10.726V10.7277V10.7293V10.731V10.7327V10.7343V10.736V10.7377V10.7393V10.741V10.7426V10.7443V10.7459V10.7476V10.7492V10.7509V10.7525V10.7542V10.7558V10.7575V10.7591V10.7608V10.7624V10.764V10.7657V10.7673V10.7689V10.7706V10.7722V10.7738V10.7755V10.7771V10.7787V10.7803V10.7819V10.7836V10.7852V10.7868V10.7884V10.79V10.7917V10.7933V10.7949V10.7965V10.7981V10.7997V10.8013V10.8029V10.8045V10.8061V10.8077V10.8093V10.8109V10.8125V10.8141V10.8157V10.8173V10.8189V10.8204V10.822V10.8236V10.8252V10.8268V10.8284V10.8299V10.8315V10.8331V10.8347V10.8362V10.8378V10.8394V10.841V10.8425V10.8441V10.8457V10.8472V10.8488V10.8503V10.8519V10.8535V10.855V10.8566V10.8581V10.8597V10.8612V10.8628V10.8643V10.8659V10.8674V10.869V10.8705V10.872V10.8736V10.8751V10.8767V10.8782V10.8797V10.8813V10.8828V10.8843V10.8858V10.8874V10.8889V10.8904V10.8919V10.8935V10.895V10.8965V10.898V10.8995V10.901V10.9026V10.9041V10.9056V10.9071V10.9086V10.9101V10.9116V10.9131V10.9146V10.9161V10.9176V10.9191V10.9206V10.9221V10.9236V10.9251V10.9266V10.9281V10.9295V10.931V10.9325V10.934V10.9355V10.9369V10.9384V10.9399V10.9414V10.9429V10.9443V10.9458V10.9473V10.9487V10.9502V10.9517V10.9531V10.9546V10.9561V10.9575V10.959V10.9604V10.9619V10.9633V10.9648V10.9662V10.9677V10.9691V10.9706V10.972V10.9735V10.9749V10.9764V10.9778V10.9792V10.9807V10.9821V10.9835V10.985V10.9864V10.9878V10.9893V10.9907V10.9921V10.9935V10.995V10.9964V10.9978V10.9992V11.0006V11.002V11.0035V11.0049V11.0063V11.0077V11.0091V11.0105V11.0119V11.0133V11.0147V11.0161V11.0175V11.0189V11.0203V11.0217V11.0231V11.0245V11.0259V11.0273V11.0287V11.0301V11.0314V11.0328V11.0342V11.0356V11.037V11.0383V11.0397V11.0411V11.0425V11.0438V11.0452V11.0466V11.0479V11.0493V11.0507V11.052V11.0534V11.0548V11.0561V11.0575V11.0588V11.0602V11.0616V11.0629V11.0643V11.0656V11.067V11.0683V11.0696V11.071V11.0723V11.0737V11.075V11.0764V11.0777V11.079V11.0804V11.0817V11.083V11.0844V11.0857V11.087V11.0883V11.0897V11.091V11.0923V11.0936V11.0949V11.0963V11.0976V11.0989V11.1002V11.1015V11.1028V11.1041V11.1054V11.1067V11.108V11.1093V11.1106V11.1119V11.1132V11.1145V11.1158V11.1171V11.1184V11.1197V11.121V11.1223V11.1236V11.1249V11.1261V11.1274V11.1287V11.13V11.1313V11.1325V11.1338V11.1351V11.1364V11.1376V11.1389V11.1402V11.1414V11.1427V11.144V11.1452V11.1465V11.1478V11.149V11.1503V11.1515V11.1528V11.154V11.1553V11.1565V11.1578V11.159V11.1603V11.1615V11.1628V11.164V11.1652V11.1665V11.1677V11.169V11.1702V11.1714C74.5438 11.8953 74.5477 12.5723 74.5555 13.2026C74.5633 13.833 74.5749 14.4516 74.5905 15.0585C74.606 15.6653 74.6255 16.2759 74.6488 16.8904M74.436 10.3537V11.1714C74.436 11.8957 74.4398 12.5732 74.4476 13.204C74.4554 13.8347 74.4671 14.4539 74.4827 15.0613C74.4983 15.6687 74.5177 16.28 74.5411 16.8952M74.5411 16.8952L74.6488 16.8898C74.6488 16.89 74.6488 16.8902 74.6488 16.8904M74.5411 16.8952L74.6489 16.8911C74.6488 16.8909 74.6488 16.8907 74.6488 16.8904M74.5411 16.8952L72.611 11.1728M74.6488 16.8904C74.68 17.5052 74.715 18.159 74.7539 18.8516L74.7603 18.9655H74.6462H72.4969H72.3828L72.3892 18.8516C72.4281 18.1587 72.4632 17.5048 72.4943 16.8898C72.5254 16.275 72.5527 15.6641 72.576 15.0571C72.5993 14.4511 72.611 13.8334 72.611 13.204V13.2026H72.611C72.6188 12.5728 72.6188 11.8962 72.611 11.1728" fill="#9A2143" stroke="#9A2143" stroke-width="0.215686"/>
<path d="M62.1342 17.575L62.1351 17.5747C62.409 17.491 62.659 17.3887 62.8856 17.268C63.1137 17.1386 63.3223 16.9982 63.5116 16.8469C63.7062 16.6835 63.893 16.5278 64.072 16.3799L64.2485 16.2341V16.463V18.7642V18.8533L64.1611 18.8701C63.9598 18.9088 63.7547 18.9514 63.5456 18.9979C63.5454 18.9979 63.5452 18.998 63.545 18.998L63.5216 18.8927C63.3191 18.9394 63.0894 18.9823 62.8324 19.0212L62.1342 17.575ZM62.1342 17.575C61.874 17.6568 61.5775 17.6985 61.2438 17.6985C60.6747 17.6985 60.1873 17.5849 59.7778 17.3618C59.3796 17.1329 59.0425 16.7611 58.7695 16.2379C58.4959 15.7135 58.2805 15.028 58.1259 14.178C57.9835 13.3535 57.888 12.3486 57.8398 11.1625M62.1342 17.575L57.8398 11.1625M63.8273 4.59147C63.4619 3.8847 62.9867 3.34377 62.4 2.97387C61.819 2.59485 61.1243 2.40778 60.3209 2.40778C59.5375 2.40778 58.8421 2.61602 58.2386 3.03442L58.2386 3.03442L58.2381 3.03481C57.6459 3.45093 57.1488 4.03308 56.7451 4.77708L56.7451 4.77708L56.7447 4.77787C56.3492 5.52143 56.0503 6.41591 55.8463 7.45935L63.7319 4.64161M63.8273 4.59147C63.8274 4.59168 63.8276 4.59189 63.8277 4.59209L63.7319 4.64161M63.8273 4.59147C63.8272 4.59125 63.8271 4.59103 63.827 4.5908L63.7319 4.64161M63.8273 4.59147C64.2001 5.28969 64.4677 6.14634 64.6326 7.15871M63.7319 4.64161C64.0979 5.32691 64.3626 6.17185 64.5262 7.17644L64.6325 7.15831C64.6325 7.15844 64.6325 7.15858 64.6326 7.15871M64.6326 7.15871C64.8051 8.17053 64.891 9.32531 64.891 10.6224V11.0546V11.1625H64.7832H57.8398M64.6326 7.15871L57.8398 11.1625M62.7701 9.59174H62.6622M62.7701 9.59174L62.6661 9.69959C62.6648 9.66369 62.6636 9.62774 62.6622 9.59174M62.7701 9.59174C62.7715 9.62774 62.7728 9.66369 62.774 9.69959L62.7701 9.59174ZM62.6622 9.59174H57.8652C57.9046 8.91677 57.9684 8.24881 58.0565 7.58785C58.1492 6.89276 58.288 6.27305 58.4721 5.7281C58.6633 5.18539 58.9061 4.75117 59.198 4.42162L62.6622 9.59174Z" fill="#9A2143" stroke="#9A2143" stroke-width="0.215686"/>
<path d="M46.9889 18.9665L46.972 18.8791C46.7851 17.9136 46.5866 16.9014 46.3763 15.8425L46.3762 15.8417C46.1739 14.7837 45.9522 13.7101 45.711 12.6208L45.7108 12.6201C45.4775 11.531 45.2246 10.442 44.9524 9.35288L44.9522 9.35218C44.7117 8.3619 44.4551 7.39746 44.1825 6.45885C44.1732 6.71226 44.1657 6.98714 44.1602 7.28351V7.28497V7.28744V7.2899V7.29237V7.29483V7.29729V7.29976V7.30222V7.30469V7.30715V7.30962V7.31208V7.31455V7.31701V7.31948V7.32194V7.32441V7.32688V7.32934V7.33181V7.33427V7.33674V7.3392V7.34167V7.34414V7.3466V7.34907V7.35154V7.354V7.35647V7.35894V7.3614V7.36387V7.36634V7.3688V7.37127V7.37374V7.3762V7.37867V7.38114V7.38361V7.38608V7.38854V7.39101V7.39348V7.39595V7.39842V7.40088V7.40335V7.40582V7.40829V7.41076V7.41323V7.41569V7.41816V7.42063V7.4231V7.42557V7.42804V7.43051V7.43298V7.43545V7.43792V7.44039V7.44286V7.44533V7.4478V7.45027V7.45274V7.45521V7.45768V7.46015V7.46262V7.46509V7.46756V7.47003V7.4725V7.47497V7.47744V7.47991V7.48239V7.48486V7.48733V7.4898V7.49227V7.49474V7.49721V7.49969V7.50216V7.50463V7.5071V7.50957V7.51205V7.51452V7.51699V7.51946V7.52194V7.52441V7.52688V7.52936V7.53183V7.5343V7.53677V7.53925V7.54172V7.54419V7.54667V7.54914V7.55161V7.55409V7.55656V7.55904V7.56151V7.56398V7.56646V7.56893V7.57141V7.57388V7.57636V7.57883V7.58131V7.58378V7.58626V7.58873V7.59121V7.59368V7.59616V7.59863V7.60111V7.60358V7.60606V7.60853V7.61101V7.61349V7.61596V7.61844V7.62091V7.62339V7.62587V7.62834V7.63082V7.6333V7.63577V7.63825V7.64073V7.6432V7.64568V7.64816V7.65064V7.65311V7.65559V7.65807V7.66055V7.66302V7.6655V7.66798V7.67046V7.67293V7.67541V7.67789V7.68037V7.68285V7.68533V7.6878V7.69028V7.69276V7.69524V7.69772V7.7002V7.70268V7.70516V7.70764V7.71012V7.7126V7.71508V7.71755V7.72003V7.72251V7.72499V7.72747V7.72995V7.73243V7.73491V7.73739V7.73988V7.74236V7.74484V7.74732V7.7498V7.75228V7.75476V7.75724V7.75972V7.7622V7.76468V7.76717V7.76965V7.77213V7.77461V7.77709V7.77957V7.78206V7.78454V7.78702V7.7895V7.79199V7.79447V7.79695V7.79943V7.80192V7.8044V7.80688V7.80936V7.81185V7.81433V7.81681V7.8193V7.82178V7.82426V7.82675V7.82923V7.83171V7.8342V7.83668V7.83917V7.84165V7.84413V7.84662V7.8491V7.85159V7.85407V7.85656V7.85904V7.86153V7.86401V7.8665V7.86898V7.87147V7.87395V7.87644V7.87892V7.88141V7.88389V7.88638V7.88887V7.89135V7.89384V7.89632V7.89881V7.9013V7.90378V7.90627V7.90876V7.91124V7.91373V7.91622V7.9187V7.92119V7.92368V7.92616V7.92865V7.93114V7.93363V7.93611V7.9386V7.94109V7.94358V7.94606V7.94855V7.95104V7.95353V7.95602V7.9585V7.96099V7.96348V7.96597V7.96846V7.97095V7.97344V7.97592V7.97841V7.9809V7.98339V7.98588V7.98837V7.99086V7.99335V7.99584V7.99833V8.00082V8.00331V8.0058V8.00829V8.01078V8.01327V8.01576V8.01825V8.02074V8.02323V8.02572V8.02821V8.0307V8.03319V8.03569V8.03818V8.04067V8.04316V8.04565V8.04814V8.05063V8.05313V8.05562V8.05811V8.0606V8.06309V8.06559V8.06808V8.07057V8.07306V8.07555V8.07805V8.08054V8.08303V8.08553V8.08802V8.09051V8.093V8.0955V8.09799V8.10048V8.10298V8.10547V8.10796V8.11046V8.11295V8.11545V8.11794V8.12043V8.12293V8.12542V8.12792V8.13041V8.13291V8.1354V8.1379V8.14039V8.14289V8.14538V8.14788V8.15037V8.15287V8.15536V8.15786V8.16035V8.16285V8.16534V8.16784V8.17034V8.17283V8.17533V8.17782V8.18032V8.18282V8.18531V8.18781V8.19031V8.1928V8.1953V8.1978V8.20029V8.20279V8.20529V8.20778V8.21028V8.21278V8.21528V8.21777V8.22027V8.22277V8.22527V8.22777V8.23026V8.23276V8.23526V8.23776V8.24026V8.24275V8.24525V8.24775V8.25025V8.25275V8.25525V8.25775V8.26025V8.26275V8.26524V8.26774V8.27024V8.27274V8.27524V8.27774V8.28024V8.28274V8.28524V8.28774V8.29024V8.29274V8.29524V8.29774V8.30024V8.30274V8.30524V8.30775V8.31025V8.31275V8.31525V8.31775V8.32025V8.32275V8.32525V8.32775V8.33026V8.33276V8.33526V8.33776V8.34026V8.34277V8.34527V8.34777V8.35027V8.35277V8.35528V8.35778V8.36028V8.36278V8.36529V8.36779V8.37029V8.3728V8.3753V8.3778V8.38031V8.38281V8.38531V8.38782V8.39032V8.39282V8.39533V8.39783V8.40034V8.40284V8.40534V8.40785V8.41035V8.41286V8.41536V8.41787V8.42037V8.42288V8.42538V8.42789V8.43039V8.4329V8.4354V8.43791V8.44041V8.44292V8.44543V8.44793V8.45044V8.45294V8.45545V8.45795V8.46046V8.46297V8.46547V8.46798V8.47049V8.47299V8.4755V8.47801V8.48051V8.48302V8.48553V8.48804V8.49054V8.49305V8.49556V8.49806V8.50057V8.50308V8.50559V8.5081V8.5106V8.51311V8.51562V8.51813V8.52064V8.52315V8.52565V8.52816V8.53067V8.53318V8.53569V8.5382V8.54071V8.54322V8.54573V8.54823V8.55074V8.55325V8.55576V8.55823V8.56069V8.56315V8.56562V8.56808V8.57054V8.573V8.57547V8.57793V8.58039V8.58285V8.58531V8.58777V8.59023V8.59269V8.59515V8.59761V8.60007V8.60253V8.60499V8.60745V8.60991V8.61236V8.61482V8.61728V8.61974V8.62219V8.62465V8.62711V8.62956V8.63202V8.63447V8.63693V8.63939V8.64184V8.64429V8.64675V8.6492V8.65166V8.65411V8.65656V8.65902V8.66147V8.66392V8.66637V8.66882V8.67128V8.67373V8.67618V8.67863V8.68108V8.68353V8.68598V8.68843V8.69088V8.69333V8.69578V8.69823V8.70067V8.70312V8.70557V8.70802V8.71047V8.71291V8.71536V8.71781V8.72025V8.7227V8.72514V8.72759V8.73003V8.73248V8.73492V8.73737V8.73981V8.74226V8.7447V8.74714V8.74959V8.75203V8.75447V8.75691V8.75936V8.7618V8.76424V8.76668V8.76912V8.77156V8.774V8.77644V8.77888V8.78132V8.78376V8.7862V8.78864V8.79108V8.79351V8.79595V8.79839V8.80083V8.80326V8.8057V8.80814V8.81057V8.81301V8.81545V8.81788V8.82032V8.82275V8.82519V8.82762V8.83006V8.83249V8.83492V8.83736V8.83979V8.84222V8.84466V8.84709V8.84952V8.85195V8.85438V8.85681V8.85925V8.86168V8.86411V8.86654V8.86897V8.8714V8.87383V8.87625V8.87868V8.88111V8.88354V8.88597V8.8884V8.89082V8.89325V8.89568V8.8981V8.90053V8.90296V8.90538V8.90781V8.91023V8.91266V8.91508V8.91751V8.91993V8.92236V8.92478V8.9272V8.92963V8.93205V8.93447V8.9369V8.93932V8.94174V8.94416V8.94658V8.949V8.95142V8.95385V8.95627V8.95869V8.96111V8.96352V8.96594V8.96836V8.97078V8.9732V8.97562V8.97804V8.98045V8.98287V8.98529V8.98771V8.99012V8.99254V8.99495V8.99737V8.99978V9.0022V9.00462V9.00703V9.00944V9.01186V9.01427V9.01669V9.0191V9.02151V9.02393V9.02634V9.02875V9.03116V9.03357V9.03599V9.0384V9.04081V9.04322V9.04563V9.04804V9.05045V9.05286V9.05527V9.05768V9.06009V9.06249V9.0649V9.06731V9.06972V9.07213V9.07453V9.07694V9.07935V9.08175V9.08416V9.08656V9.08897V9.09138V9.09378V9.09619V9.09859V9.10099V9.1034V9.1058V9.10821V9.11061V9.11301V9.11541V9.11782V9.12022V9.12262V9.12502V9.12742V9.12982V9.13223V9.13463V9.13703V9.13943V9.14183V9.14423V9.14662V9.14902V9.15142V9.15382V9.15622V9.15862V9.16101V9.16341V9.16581V9.1682V9.1706V9.173V9.17539V9.17779V9.18018V9.18258V9.18497V9.18737V9.18976V9.19216V9.19455V9.19695V9.19934V9.20173V9.20412V9.20652V9.20891V9.2113V9.21369V9.21608V9.21847V9.22087V9.22326V9.22565V9.22804V9.23043V9.23282V9.23521V9.23759V9.23998V9.24237V9.24476V9.24715V9.24954V9.25192V9.25431V9.2567V9.25908V9.26147V9.26386V9.26624V9.26863V9.27101V9.2734V9.27578V9.27817V9.28055V9.28294V9.28532V9.2877V9.29009V9.29247V9.29485V9.29723V9.29962V9.302V9.30438V9.30676V9.30914V9.31152V9.3139V9.31628V9.31866V9.32104V9.32342V9.3258V9.32818V9.33056V9.33294V9.33531V9.33769V9.34007V9.34245V9.34482V9.3472V9.34958V9.35195V9.35433V9.3567V9.35908V9.36145V9.36383V9.3662V9.36858V9.37095V9.37333V9.3757V9.37807V9.38045V9.38282V9.38519V9.38756V9.38994V9.39231V9.39468V9.39705V9.39942V9.40179V9.40416V9.40653V9.4089V9.41127V9.41364V9.41601V9.41838V9.42075V9.42311V9.42548V9.42785V9.43022V9.43258V9.43495V9.43732V9.43968V9.44205V9.44442V9.44678V9.44915V9.45151V9.45388V9.45624V9.4586V9.46097V9.46333V9.4657V9.46806V9.47042V9.47278V9.47515V9.47751V9.47987V9.48223V9.48459V9.48695V9.48931V9.49167V9.49403V9.49639V9.49875V9.50111V9.50347V9.50583V9.50819V9.51055V9.51291V9.51526V9.51762V9.51998V9.52234V9.52469V9.52705V9.5294V9.53176V9.53412V9.53647V9.53883V9.54118V9.54354V9.54589V9.54824V9.5506V9.55295V9.5553V9.55766V9.56001V9.56236V9.56471V9.56707V9.56942V9.57177V9.57412V9.57647V9.57882V9.58117V9.58352V9.58587V9.58822V9.59057V9.59292V9.59527V9.59762V9.59996V9.60231V9.60466V9.60701V9.60935V9.6117V9.61405V9.61639V9.61874V9.62109V9.62343V9.62578V9.62812V9.63047V9.63281V9.63515V9.6375V9.63984V9.64218V9.64453V9.64687V9.64921V9.65156V9.6539V9.65624V9.65858V9.66092V9.66326V9.6656V9.66794V9.67028V9.67262V9.67496V9.6773V9.67964V9.68198V9.68432V9.68666V9.68899V9.69133V9.69367V9.69601V9.69834V9.70068V9.70302V9.70535V9.70769V9.71002V9.71236V9.71469V9.71703V9.71936V9.7217V9.72403V9.72637V9.7287V9.73103V9.73336V9.7357V9.73803V9.74036V9.74269V9.74503V9.74736V9.74969V9.75202V9.75435V9.75668V9.75901V9.76134V9.76367V9.766V9.76833V9.77065V9.77298V9.77531V9.77764V9.77997V9.78123C44.168 10.1784 44.1719 10.5254 44.1719 10.8219C44.1719 11.4211 44.1758 12.0515 44.1836 12.713C44.1914 13.3745 44.2031 14.0517 44.2186 14.7444C44.2342 15.4293 44.2536 16.122 44.277 16.8224C44.3003 17.5147 44.3314 18.1913 44.3703 18.8523L44.377 18.9665H44.2627H42.125H42.0093L42.0174 18.851C42.0641 18.1905 42.099 17.5143 42.1223 16.8224L42.1224 16.8213H42.1224C42.1535 16.1212 42.1768 15.4289 42.1924 14.7444C42.208 14.0517 42.2196 13.3746 42.2274 12.713C42.2352 12.0515 42.2391 11.4211 42.2391 10.8219C42.2391 10.2228 42.2352 9.59239 42.2274 8.93083C42.2196 8.2693 42.208 7.59608 42.1924 6.91116C42.1768 6.22667 42.1535 5.53827 42.1224 4.84597L42.1223 4.84476L42.1223 4.84476C42.099 4.15294 42.0641 3.47675 42.0174 2.81619L42.0093 2.70075H42.125H44.8935H44.9813L44.9991 2.78673C45.4584 5.00539 45.9215 7.13054 46.3886 9.16218C46.8553 11.1515 47.3596 13.0389 47.9014 14.8244C48.443 13.0389 48.9434 11.1516 49.4025 9.1623L49.4025 9.16201C49.8773 7.13043 50.3444 5.00535 50.8037 2.78673L50.8215 2.70075H50.9093H53.6777H53.7935L53.7853 2.81619C53.7387 3.477 53.6998 4.15341 53.6687 4.84544C53.6454 5.53791 53.6259 6.22648 53.6103 6.91116C53.5948 7.59608 53.5831 8.2693 53.5753 8.93083C53.5675 9.59239 53.5636 10.2228 53.5636 10.8219C53.5636 11.4211 53.5675 12.0515 53.5753 12.713C53.5831 13.3746 53.5948 14.0517 53.6103 14.7444L46.9889 18.9665ZM46.9889 18.9665H47.0778M46.9889 18.9665H47.0778M48.7249 18.8586H47.0778M48.7249 18.8586V18.9665H48.8139L48.8308 18.8791L48.7249 18.8586ZM48.7249 18.8586C48.9118 17.893 49.1065 16.8806 49.309 15.8215C49.5192 14.7624 49.7412 13.6877 49.9748 12.5975L47.0778 18.8586M47.0778 18.8586V18.9665M47.0778 18.8586V18.9665M51.5841 14.7444C51.5841 14.7444 51.5841 14.7444 51.5841 14.7444L51.6919 14.7468L51.5841 14.7444ZM51.5841 14.7444C51.5997 14.0517 51.6114 13.3746 51.6191 12.713C51.6269 12.0515 51.6308 11.4211 51.6308 10.8219V10.8202V10.8185V10.8167V10.815V10.8132V10.8115V10.8098V10.808V10.8063V10.8045V10.8028V10.801V10.7993V10.7975V10.7958V10.794V10.7923V10.7905V10.7888V10.787V10.7853V10.7835V10.7817V10.78V10.7782V10.7765V10.7747V10.7729V10.7712V10.7694V10.7676V10.7658V10.7641V10.7623V10.7605V10.7588V10.757V10.7552V10.7534V10.7516V10.7499V10.7481V10.7463V10.7445V10.7427V10.7409V10.7391V10.7374V10.7356V10.7338V10.732V10.7302V10.7284V10.7266V10.7248V10.723V10.7212V10.7194V10.7176V10.7158V10.714V10.7122V10.7104V10.7086V10.7068V10.705V10.7032V10.7013V10.6995V10.6977V10.6959V10.6941V10.6923V10.6904V10.6886V10.6868V10.685V10.6832V10.6813V10.6795V10.6777V10.6758V10.674V10.6722V10.6704V10.6685V10.6667V10.6649V10.663V10.6612V10.6593V10.6575V10.6557V10.6538V10.652V10.6501V10.6483V10.6464V10.6446V10.6427V10.6409V10.639V10.6372V10.6353V10.6335V10.6316V10.6298V10.6279V10.626V10.6242V10.6223V10.6205V10.6186V10.6167V10.6149V10.613V10.6111V10.6093V10.6074V10.6055V10.6036V10.6018V10.5999V10.598V10.5961V10.5943V10.5924V10.5905V10.5886V10.5867V10.5848V10.583V10.5811V10.5792V10.5773V10.5754V10.5735V10.5716V10.5697V10.5678V10.5659V10.564V10.5621V10.5602V10.5583V10.5564V10.5545V10.5526V10.5507V10.5488V10.5469V10.545V10.5431V10.5412V10.5392V10.5373V10.5354V10.5335V10.5316V10.5297V10.5277V10.5258V10.5239V10.522V10.5201V10.5181V10.5162V10.5143V10.5123V10.5104V10.5085V10.5065V10.5046V10.5027V10.5007V10.4988V10.4969V10.4949V10.493V10.491V10.4891V10.4872V10.4852V10.4833V10.4813V10.4794V10.4774V10.4755V10.4735V10.4716V10.4696V10.4677V10.4657V10.4637V10.4618V10.4598V10.4579V10.4559V10.4539V10.452V10.45V10.448V10.4461V10.4441V10.4421V10.4402V10.4382V10.4362V10.4342V10.4323V10.4303V10.4283V10.4263V10.4243V10.4224V10.4204V10.4184V10.4164V10.4144V10.4124V10.4104V10.4084V10.4064V10.4045V10.4025V10.4005V10.3985V10.3965V10.3945V10.3925V10.3905V10.3885V10.3865V10.3845V10.3825V10.3805V10.3784V10.3764V10.3744V10.3724V10.3704V10.3684V10.3664V10.3644V10.3623V10.3603V10.3583V10.3563V10.3543V10.3522V10.3502V10.3482V10.3462V10.3441V10.3421V10.3401V10.338V10.336V10.334V10.3319V10.3299V10.3279V10.3258V10.3238V10.3218V10.3197V10.3177V10.3156V10.3136V10.3115V10.3095V10.3074V10.3054V10.3033V10.3013V10.2992V10.2972V10.2951V10.2931V10.291V10.2889V10.2869V10.2848V10.2828V10.2807V10.2786V10.2766V10.2745V10.2724V10.2704V10.2683V10.2662V10.2642V10.2621V10.26V10.2579V10.2558V10.2538V10.2517V10.2496V10.2475V10.2454V10.2434V10.2413V10.2392V10.2371V10.235V10.2329V10.2308V10.2287V10.2266V10.2245V10.2225V10.2204V10.2183V10.2162V10.2141V10.212V10.2099V10.2077V10.2056V10.2035V10.2014V10.1993V10.1972V10.1951V10.193V10.1909V10.1888V10.1866V10.1845V10.1824V10.1803V10.1782V10.176V10.1739V10.1718V10.1697V10.1675V10.1654V10.1633V10.1612V10.159V10.1569V10.1548V10.1526V10.1505V10.1484V10.1462V10.1441V10.1419V10.1398V10.1377V10.1355V10.1334V10.1312V10.1291V10.1269V10.1248V10.1226V10.1205V10.1183V10.1162V10.114V10.1119V10.1097V10.1075V10.1054V10.1032V10.1011V10.0989V10.0967V10.0946V10.0924V10.0902V10.0881V10.0859V10.0837V10.0816V10.0794V10.0772V10.075V10.0729V10.0707V10.0685V10.0663V10.0641V10.0619V10.0598V10.0576V10.0554V10.0532V10.051V10.0488V10.0466V10.0444V10.0423V10.0401V10.0379V10.0357V10.0335V10.0313V10.0291V10.0269V10.0247V10.0225V10.0203V10.018V10.0158V10.0136V10.0114V10.0092V10.007V10.0048V10.0026V10.0004V9.99814V9.99592V9.99371V9.99149V9.98926V9.98704V9.98482V9.98259V9.98037V9.97814V9.97591V9.97368V9.97145V9.96922V9.96699V9.96476V9.96252V9.96028V9.95805V9.95581V9.95357V9.95133V9.94909V9.94684V9.9446V9.94235V9.94011V9.93786V9.93561V9.93336V9.93111V9.92886V9.9266V9.92435V9.92209V9.91984V9.91758V9.91532V9.91306V9.9108V9.90853V9.90627V9.904V9.90174V9.89947V9.8972V9.89493V9.89266V9.89039V9.88811V9.88584V9.88356V9.88129V9.87901V9.87673V9.87445V9.87217V9.86989V9.8676V9.86532V9.86303V9.86075V9.85846V9.85617V9.85388V9.85159V9.84929V9.847V9.8447V9.84241V9.84011V9.83781V9.83551V9.83321V9.83091V9.8286V9.8263V9.82399V9.82169V9.81938V9.81707V9.81476V9.81245V9.81014V9.80782V9.80551V9.80319V9.80087V9.79855V9.79624V9.79391V9.79159V9.78927V9.78695V9.78462V9.78229L51.5841 14.7444ZM51.6308 8.55823V8.55576V8.55823ZM51.6308 8.55823V8.56069M51.6308 8.55823V8.56069M51.6308 8.56069V8.56315M51.6308 8.56069V8.56315M51.6308 8.56315V8.56562M51.6308 8.56315V8.56562M51.6308 8.56562V8.56808M51.6308 8.56562V8.56808M51.6308 8.56808V8.57054M51.6308 8.56808V8.57054M51.6308 8.57054V8.573M51.6308 8.57054V8.573M51.6308 8.573V8.57547M51.6308 8.573V8.57547M51.6308 8.57547V8.57793M51.6308 8.57547V8.57793M51.6308 8.57793V8.58039M51.6308 8.57793V8.58039M51.6308 8.58039V8.58285M51.6308 8.58039V8.58285M51.6308 8.58285V8.58531M51.6308 8.58285V8.58531M51.6308 8.58531V8.58777M51.6308 8.58531V8.58777M51.6308 8.58777V8.59023M51.6308 8.58777V8.59023M51.6308 8.59023V8.59269M51.6308 8.59023V8.59269M51.6308 8.59269V8.59515M51.6308 8.59269V8.59515M51.6308 8.59515V8.59761M51.6308 8.59515V8.59761M51.6308 8.59761V8.60007M51.6308 8.59761V8.60007M51.6308 8.60007V8.60253M51.6308 8.60007V8.60253M51.6308 8.60253V8.60499M51.6308 8.60253V8.60499M51.6308 8.60499V8.60745M51.6308 8.60499V8.60745M51.6308 8.60745V8.60991M51.6308 8.60745V8.60991M51.6308 8.60991V8.61236M51.6308 8.60991V8.61236M51.6308 8.61236V8.61482M51.6308 8.61236V8.61482M51.6308 8.61482V8.61728M51.6308 8.61482V8.61728M51.6308 8.61728V8.61974M51.6308 8.61728V8.61974M51.6308 8.61974V8.62219M51.6308 8.61974V8.62219M51.6308 8.62219V8.62465M51.6308 8.62219V8.62465M51.6308 8.62465V8.62711M51.6308 8.62465V8.62711M51.6308 8.62711V8.62956M51.6308 8.62711V8.62956M51.6308 8.62956V8.63202M51.6308 8.62956V8.63202M51.6308 8.63202V8.63447M51.6308 8.63202V8.63447M51.6308 8.63447V8.63693M51.6308 8.63447V8.63693M51.6308 8.63693V8.63939M51.6308 8.63693V8.63939M51.6308 8.63939V8.64184M51.6308 8.63939V8.64184M51.6308 8.64184V8.64429M51.6308 8.64184V8.64429M51.6308 8.64429V8.64675M51.6308 8.64429V8.64675M51.6308 8.64675V8.6492M51.6308 8.64675V8.6492M51.6308 8.6492V8.65166M51.6308 8.6492V8.65166M51.6308 8.65166V8.65411M51.6308 8.65166V8.65411M51.6308 8.65411V8.65656M51.6308 8.65411V8.65656M51.6308 8.65656V8.65902M51.6308 8.65656V8.65902M51.6308 8.65902V8.66147M51.6308 8.65902V8.66147M51.6308 8.66147V8.66392M51.6308 8.66147V8.66392M51.6308 8.66392V8.66637M51.6308 8.66392V8.66637M51.6308 8.66637V8.66882M51.6308 8.66637V8.66882M51.6308 8.66882V8.67128M51.6308 8.66882V8.67128M51.6308 8.67128V8.67373M51.6308 8.67128V8.67373M51.6308 8.67373V8.67618M51.6308 8.67373V8.67618M51.6308 8.67618V8.67863M51.6308 8.67618V8.67863M51.6308 8.67863V8.68108M51.6308 8.67863V8.68108M51.6308 8.68108V8.68353M51.6308 8.68108V8.68353M51.6308 8.68353V8.68598M51.6308 8.68353V8.68598M51.6308 8.68598V8.68843M51.6308 8.68598V8.68843M51.6308 8.68843V8.69088M51.6308 8.68843V8.69088M51.6308 8.69088V8.69333M51.6308 8.69088V8.69333M51.6308 8.69333V8.69578M51.6308 8.69333V8.69578M51.6308 8.69578V8.69823M51.6308 8.69578V8.69823M51.6308 8.69823V8.70067M51.6308 8.69823V8.70067M51.6308 8.70067V8.70312M51.6308 8.70067V8.70312M51.6308 8.70312V8.70557M51.6308 8.70312V8.70557M51.6308 8.70557V8.70802M51.6308 8.70557V8.70802M51.6308 8.70802V8.71047M51.6308 8.70802V8.71047M51.6308 8.71047V8.71291M51.6308 8.71047V8.71291M51.6308 8.71291V8.71536M51.6308 8.71291V8.71536M51.6308 8.71536V8.71781M51.6308 8.71536V8.71781M51.6308 8.71781V8.72025M51.6308 8.71781V8.72025M51.6308 8.72025V8.7227M51.6308 8.72025V8.7227M51.6308 8.7227V8.72514M51.6308 8.7227V8.72514M51.6308 8.72514V8.72759M51.6308 8.72514V8.72759M51.6308 8.72759V8.73003M51.6308 8.72759V8.73003M51.6308 8.73003V8.73248M51.6308 8.73003V8.73248M51.6308 8.73248V8.73492M51.6308 8.73248V8.73492M51.6308 8.73492V8.73737M51.6308 8.73492V8.73737M51.6308 8.73737V8.73981M51.6308 8.73737V8.73981M51.6308 8.73981V8.74226M51.6308 8.73981V8.74226M51.6308 8.74226V8.7447M51.6308 8.74226V8.7447M51.6308 8.7447V8.74714M51.6308 8.7447V8.74714M51.6308 8.74714V8.74959M51.6308 8.74714V8.74959M51.6308 8.74959V8.75203M51.6308 8.74959V8.75203M51.6308 8.75203V8.75447M51.6308 8.75203V8.75447M51.6308 8.75447V8.75691M51.6308 8.75447V8.75691M51.6308 8.75691V8.75936M51.6308 8.75691V8.75936M51.6308 8.75936V8.7618M51.6308 8.75936V8.7618M51.6308 8.7618V8.76424M51.6308 8.7618V8.76424M51.6308 8.76424V8.76668M51.6308 8.76424V8.76668M51.6308 8.76668V8.76912M51.6308 8.76668V8.76912M51.6308 8.76912V8.77156M51.6308 8.76912V8.77156M51.6308 8.77156V8.774M51.6308 8.77156V8.774M51.6308 8.774V8.77644M51.6308 8.774V8.77644M51.6308 8.77644V8.77888M51.6308 8.77644V8.77888M51.6308 8.77888V8.78132M51.6308 8.77888V8.78132M51.6308 8.78132V8.78376M51.6308 8.78132V8.78376M51.6308 8.78376V8.7862M51.6308 8.78376V8.7862M51.6308 8.7862V8.78864M51.6308 8.7862V8.78864M51.6308 8.78864V8.79108M51.6308 8.78864V8.79108M51.6308 8.79108V8.79351M51.6308 8.79108V8.79351M51.6308 8.79351V8.79595M51.6308 8.79351V8.79595M51.6308 8.79595V8.79839M51.6308 8.79595V8.79839M51.6308 8.79839V8.80083M51.6308 8.79839V8.80083M51.6308 8.80083V8.80326M51.6308 8.80083V8.80326M51.6308 8.80326V8.8057M51.6308 8.80326V8.8057M51.6308 8.8057V8.80814M51.6308 8.8057V8.80814M51.6308 8.80814V8.81057M51.6308 8.80814V8.81057M51.6308 8.81057V8.81301M51.6308 8.81057V8.81301M51.6308 8.81301V8.81545M51.6308 8.81301V8.81545M51.6308 8.81545V8.81788M51.6308 8.81545V8.81788M51.6308 8.81788V8.82032M51.6308 8.81788V8.82032M51.6308 8.82032V8.82275M51.6308 8.82032V8.82275M51.6308 8.82275V8.82519M51.6308 8.82275V8.82519M51.6308 8.82519V8.82762M51.6308 8.82519V8.82762M51.6308 8.82762V8.83006M51.6308 8.82762V8.83006M51.6308 8.83006V8.83249M51.6308 8.83006V8.83249M51.6308 8.83249V8.83492M51.6308 8.83249V8.83492M51.6308 8.83492V8.83736M51.6308 8.83492V8.83736M51.6308 8.83736V8.83979M51.6308 8.83736V8.83979M51.6308 8.83979V8.84222M51.6308 8.83979V8.84222M51.6308 8.84222V8.84466M51.6308 8.84222V8.84466M51.6308 8.84466V8.84709M51.6308 8.84466V8.84709M51.6308 8.84709V8.84952M51.6308 8.84709V8.84952M51.6308 8.84952V8.85195M51.6308 8.84952V8.85195M51.6308 8.85195V8.85438M51.6308 8.85195V8.85438M51.6308 8.85438V8.85681M51.6308 8.85438V8.85681M51.6308 8.85681V8.85925M51.6308 8.85681V8.85925M51.6308 8.85925V8.86168M51.6308 8.85925V8.86168M51.6308 8.86168V8.86411M51.6308 8.86168V8.86411M51.6308 8.86411V8.86654M51.6308 8.86411V8.86654M51.6308 8.86654V8.86897M51.6308 8.86654V8.86897M51.6308 8.86897V8.8714M51.6308 8.86897V8.8714M51.6308 8.8714V8.87383M51.6308 8.8714V8.87383M51.6308 8.87383V8.87625M51.6308 8.87383V8.87625M51.6308 8.87625V8.87868M51.6308 8.87625V8.87868M51.6308 8.87868V8.88111M51.6308 8.87868V8.88111M51.6308 8.88111V8.88354M51.6308 8.88111V8.88354M51.6308 8.88354V8.88597M51.6308 8.88354V8.88597M51.6308 8.88597V8.8884M51.6308 8.88597V8.8884M51.6308 8.8884V8.89082M51.6308 8.8884V8.89082M51.6308 8.89082V8.89325M51.6308 8.89082V8.89325M51.6308 8.89325V8.89568M51.6308 8.89325V8.89568M51.6308 8.89568V8.8981M51.6308 8.89568V8.8981M51.6308 8.8981V8.90053M51.6308 8.8981V8.90053M51.6308 8.90053V8.90296M51.6308 8.90053V8.90296M51.6308 8.90296V8.90538M51.6308 8.90296V8.90538M51.6308 8.90538V8.90781M51.6308 8.90538V8.90781M51.6308 8.90781V8.91023M51.6308 8.90781V8.91023M51.6308 8.91023V8.91266M51.6308 8.91023V8.91266M51.6308 8.91266V8.91508M51.6308 8.91266V8.91508M51.6308 8.91508V8.91751M51.6308 8.91508V8.91751M51.6308 8.91751V8.91993M51.6308 8.91751V8.91993M51.6308 8.91993V8.92236M51.6308 8.91993V8.92236M51.6308 8.92236V8.92478M51.6308 8.92236V8.92478M51.6308 8.92478V8.9272M51.6308 8.92478V8.9272M51.6308 8.9272V8.92963M51.6308 8.9272V8.92963M51.6308 8.92963V8.93205M51.6308 8.92963V8.93205M51.6308 8.93205V8.93447M51.6308 8.93205V8.93447M51.6308 8.93447V8.9369M51.6308 8.93447V8.9369M51.6308 8.9369V8.93932M51.6308 8.9369V8.93932M51.6308 8.93932V8.94174M51.6308 8.93932V8.94174M51.6308 8.94174V8.94416M51.6308 8.94174V8.94416M51.6308 8.94416V8.94658M51.6308 8.94416V8.94658M51.6308 8.94658V8.949M51.6308 8.94658V8.949M51.6308 8.949V8.95142M51.6308 8.949V8.95142M51.6308 8.95142V8.95385M51.6308 8.95142V8.95385M51.6308 8.95385V8.95627M51.6308 8.95385V8.95627M51.6308 8.95627V8.95869M51.6308 8.95627V8.95869M51.6308 8.95869V8.96111M51.6308 8.95869V8.96111M51.6308 8.96111V8.96352M51.6308 8.96111V8.96352M51.6308 8.96352V8.96594M51.6308 8.96352V8.96594M51.6308 8.96594V8.96836M51.6308 8.96594V8.96836M51.6308 8.96836V8.97078M51.6308 8.96836V8.97078M51.6308 8.97078V8.9732M51.6308 8.97078V8.9732M51.6308 8.9732V8.97562M51.6308 8.9732V8.97562M51.6308 8.97562V8.97804M51.6308 8.97562V8.97804M51.6308 8.97804V8.98045M51.6308 8.97804V8.98045M51.6308 8.98045V8.98287M51.6308 8.98045V8.98287M51.6308 8.98287V8.98529M51.6308 8.98287V8.98529M51.6308 8.98529V8.98771M51.6308 8.98529V8.98771M51.6308 8.98771V8.99012M51.6308 8.98771V8.99012M51.6308 8.99012V8.99254M51.6308 8.99012V8.99254M51.6308 8.99254V8.99495M51.6308 8.99254V8.99495M51.6308 8.99495V8.99737M51.6308 8.99495V8.99737M51.6308 8.99737V8.99978M51.6308 8.99737V8.99978M51.6308 8.99978V9.0022M51.6308 8.99978V9.0022M51.6308 9.0022V9.00462M51.6308 9.0022V9.00462M51.6308 9.00462V9.00703M51.6308 9.00462V9.00703M51.6308 9.00703V9.00944M51.6308 9.00703V9.00944M51.6308 9.00944V9.01186M51.6308 9.00944V9.01186M51.6308 9.01186V9.01427M51.6308 9.01186V9.01427M51.6308 9.01427V9.01669M51.6308 9.01427V9.01669M51.6308 9.01669V9.0191M51.6308 9.01669V9.0191M51.6308 9.0191V9.02151M51.6308 9.0191V9.02151M51.6308 9.02151V9.02393M51.6308 9.02151V9.02393M51.6308 9.02393V9.02634M51.6308 9.02393V9.02634M51.6308 9.02634V9.02875M51.6308 9.02634V9.02875M51.6308 9.02875V9.03116M51.6308 9.02875V9.03116M51.6308 9.03116V9.03357M51.6308 9.03116V9.03357M51.6308 9.03357V9.03599M51.6308 9.03357V9.03599M51.6308 9.03599V9.0384M51.6308 9.03599V9.0384M51.6308 9.0384V9.04081M51.6308 9.0384V9.04081M51.6308 9.04081V9.04322M51.6308 9.04081V9.04322M51.6308 9.04322V9.04563M51.6308 9.04322V9.04563M51.6308 9.04563V9.04804M51.6308 9.04563V9.04804M51.6308 9.04804V9.05045M51.6308 9.04804V9.05045M51.6308 9.05045V9.05286M51.6308 9.05045V9.05286M51.6308 9.05286V9.05527V9.05286ZM53.7853 18.851C53.7387 18.1902 53.6998 17.5138 53.6687 16.8218L51.5257 16.8224C51.5257 16.8225 51.5257 16.8225 51.5257 16.8225C51.5024 17.5147 51.4713 18.1913 51.4324 18.8523L51.4257 18.9665H51.5401H53.6777H53.7935L53.7853 18.851Z" fill="#9A2143" stroke="#9A2143" stroke-width="0.215686"/>
<path d="M153.923 17.575L153.924 17.5747C154.198 17.491 154.448 17.3887 154.675 17.268C154.903 17.1386 155.111 16.9982 155.301 16.8469C155.495 16.6835 155.682 16.5278 155.861 16.3799L156.038 16.2341V16.463V18.7642V18.8533L155.95 18.8701C155.749 18.9088 155.544 18.9514 155.335 18.9979C155.334 18.9979 155.334 18.998 155.334 18.998L155.311 18.8927C155.108 18.9394 154.878 18.9823 154.621 19.0212L153.923 17.575ZM153.923 17.575C153.663 17.6568 153.367 17.6985 153.033 17.6985C152.464 17.6985 151.976 17.5849 151.567 17.3618C151.169 17.1329 150.832 16.7611 150.559 16.2379C150.285 15.7135 150.07 15.028 149.915 14.178C149.773 13.3535 149.677 12.3486 149.629 11.1625M153.923 17.575L149.629 11.1625M155.616 4.59147C155.251 3.8847 154.776 3.34377 154.189 2.97387C153.608 2.59485 152.913 2.40778 152.11 2.40778C151.327 2.40778 150.631 2.61602 150.028 3.03442L150.028 3.03442L150.027 3.03481C149.435 3.45093 148.938 4.03308 148.534 4.77708L148.534 4.77708L148.534 4.77787C148.138 5.52143 147.839 6.41591 147.635 7.45935L155.521 4.64161M155.616 4.59147C155.617 4.59168 155.617 4.59189 155.617 4.59209L155.521 4.64161M155.616 4.59147C155.616 4.59125 155.616 4.59103 155.616 4.5908L155.521 4.64161M155.616 4.59147C155.989 5.28969 156.257 6.14634 156.422 7.15871M155.521 4.64161C155.887 5.32691 156.152 6.17185 156.315 7.17644L156.422 7.15831C156.422 7.15844 156.422 7.15858 156.422 7.15871M156.422 7.15871C156.594 8.17053 156.68 9.32531 156.68 10.6224V11.0546V11.1625H156.572H149.629M156.422 7.15871L149.629 11.1625M154.234 6.98143L154.234 6.98143L154.235 6.98329C154.304 7.4159 154.354 7.86426 154.385 8.32837C154.414 8.75609 154.436 9.17721 154.451 9.59174H149.654C149.694 8.91677 149.757 8.24881 149.846 7.58785C149.938 6.89276 150.077 6.27305 150.261 5.7281C150.452 5.18539 150.695 4.75117 150.987 4.42162C151.278 4.10202 151.638 3.94345 152.075 3.94345C152.408 3.94345 152.691 4.02095 152.928 4.17189C153.171 4.32624 153.378 4.53646 153.549 4.8048C153.722 5.07484 153.862 5.39586 153.969 5.76927L153.969 5.76928L153.969 5.77121C154.084 6.14695 154.173 6.55029 154.234 6.98143Z" fill="#9A2143" stroke="#9A2143" stroke-width="0.215686"/>
<path d="M143.378 7.99781L143.378 7.99877C143.417 8.90074 143.445 9.9587 143.46 11.1728C143.468 11.8962 143.468 12.5728 143.46 13.2026H143.46V13.204C143.46 13.8334 143.448 14.4511 143.425 15.0571C143.402 15.6641 143.375 16.275 143.343 16.8898C143.312 17.5048 143.277 18.1587 143.238 18.8516L143.232 18.9655H143.346H145.495H145.609L145.603 18.8516C145.564 18.159 145.529 17.5052 145.498 16.8904C145.475 16.2759 145.455 15.6653 145.44 15.0585C145.424 14.4516 145.412 13.833 145.405 13.2026C145.397 12.5723 145.393 11.8953 145.393 11.1714V11.1702V11.169V11.1677V11.1665V11.1652V11.164V11.1628V11.1615V11.1603V11.159V11.1578V11.1565V11.1553V11.154V11.1528V11.1515V11.1503V11.149V11.1478V11.1465V11.1452V11.144V11.1427V11.1414V11.1402V11.1389V11.1376V11.1364V11.1351V11.1338V11.1325V11.1313V11.13V11.1287V11.1274V11.1261V11.1249V11.1236V11.1223V11.121V11.1197V11.1184V11.1171V11.1158V11.1145V11.1132V11.1119V11.1106V11.1093V11.108V11.1067V11.1054V11.1041V11.1028V11.1015V11.1002V11.0989V11.0976V11.0963V11.0949V11.0936V11.0923V11.091V11.0897V11.0883V11.087V11.0857V11.0844V11.083V11.0817V11.0804V11.079V11.0777V11.0764V11.075V11.0737V11.0723V11.071V11.0696V11.0683V11.067V11.0656V11.0643V11.0629V11.0616V11.0602V11.0588V11.0575V11.0561V11.0548V11.0534V11.052V11.0507V11.0493V11.0479V11.0466V11.0452V11.0438V11.0425V11.0411V11.0397V11.0383V11.037V11.0356V11.0342V11.0328V11.0314V11.0301V11.0287V11.0273V11.0259V11.0245V11.0231V11.0217V11.0203V11.0189V11.0175V11.0161V11.0147V11.0133V11.0119V11.0105V11.0091V11.0077V11.0063V11.0049V11.0035V11.002V11.0006V10.9992V10.9978V10.9964V10.995V10.9935V10.9921V10.9907V10.9893V10.9878V10.9864V10.985V10.9835V10.9821V10.9807V10.9792V10.9778V10.9764V10.9749V10.9735V10.972V10.9706V10.9691V10.9677V10.9662V10.9648V10.9633V10.9619V10.9604V10.959V10.9575V10.9561V10.9546V10.9531V10.9517V10.9502V10.9487V10.9473V10.9458V10.9443V10.9429V10.9414V10.9399V10.9384V10.9369V10.9355V10.934V10.9325V10.931V10.9295V10.9281V10.9266V10.9251V10.9236V10.9221V10.9206V10.9191V10.9176V10.9161V10.9146V10.9131V10.9116V10.9101V10.9086V10.9071V10.9056V10.9041V10.9026V10.901V10.8995V10.898V10.8965V10.895V10.8935V10.8919V10.8904V10.8889V10.8874V10.8858V10.8843V10.8828V10.8813V10.8797V10.8782V10.8767V10.8751V10.8736V10.872V10.8705V10.869V10.8674V10.8659V10.8643V10.8628V10.8612V10.8597V10.8581V10.8566V10.855V10.8535V10.8519V10.8503V10.8488V10.8472V10.8457V10.8441V10.8425V10.841V10.8394V10.8378V10.8362V10.8347V10.8331V10.8315V10.8299V10.8284V10.8268V10.8252V10.8236V10.822V10.8204V10.8189V10.8173V10.8157V10.8141V10.8125V10.8109V10.8093V10.8077V10.8061V10.8045V10.8029V10.8013V10.7997V10.7981V10.7965V10.7949V10.7933V10.7917V10.79V10.7884V10.7868V10.7852V10.7836V10.7819V10.7803V10.7787V10.7771V10.7755V10.7738V10.7722V10.7706V10.7689V10.7673V10.7657V10.764V10.7624V10.7608V10.7591V10.7575V10.7558V10.7542V10.7525V10.7509V10.7492V10.7476V10.7459V10.7443V10.7426V10.741V10.7393V10.7377V10.736V10.7343V10.7327V10.731V10.7293V10.7277V10.726V10.7243V10.7227V10.721V10.7193V10.7176V10.716V10.7143V10.7126V10.7109V10.7092V10.7075V10.7059V10.7042V10.7025V10.7008V10.6991V10.6974V10.6957V10.694V10.6923V10.6906V10.6889V10.6872V10.6855V10.6838V10.6821V10.6804V10.6787V10.677V10.6753V10.6736V10.6718V10.6701V10.6684V10.6667V10.665V10.6632V10.6615V10.6598V10.6581V10.6563V10.6546V10.6529V10.6512V10.6494V10.6477V10.6459V10.6442V10.6425V10.6407V10.639V10.6372V10.6355V10.6338V10.632V10.6303V10.6285V10.6268V10.625V10.6232V10.6215V10.6197V10.618V10.6162V10.6145V10.6127V10.6109V10.6092V10.6074V10.6056V10.6039V10.6021V10.6003V10.5985V10.5968V10.595V10.5932V10.5914V10.5896V10.5879V10.5861V10.5843V10.5825V10.5807V10.5789V10.5771V10.5753V10.5735V10.5717V10.5699V10.5681V10.5663V10.5645V10.5627V10.5609V10.5591V10.5573V10.5555V10.5537V10.5519V10.5501V10.5483V10.5465V10.5446V10.5428V10.541V10.5392V10.5374V10.5355V10.5337V10.5319V10.53V10.5282V10.5264V10.5245V10.5227V10.5209V10.519V10.5172V10.5154V10.5135V10.5117V10.5098V10.508V10.5061V10.5043V10.5024V10.5006V10.4987V10.4969V10.495V10.4932V10.4913V10.4895V10.4876V10.4857V10.4839V10.482V10.4801V10.4783V10.4764V10.4745V10.4726V10.4708V10.4689V10.467V10.4651V10.4633V10.4614V10.4595V10.4576V10.4557V10.4538V10.4519V10.4501V10.4482V10.4463V10.4444V10.4425V10.4406V10.4387V10.4368V10.4349V10.433V10.4311V10.4292V10.4273V10.4254V10.4234V10.4215V10.4196V10.4177V10.4158V10.4139V10.412V10.41V10.4081V10.4062V10.4043V10.4023V10.4004V10.3985V10.3966V10.3946V10.3927V10.3908V10.3888V10.3869V10.3849V10.383V10.3811V10.3791V10.3772V10.3752V10.3733V10.3713V10.3694V10.3674V10.3655V10.3635V10.3616V10.3596V10.3577V10.3557V10.355C145.401 10.0203 145.408 9.65852 145.416 9.26954L145.416 9.2695C145.424 8.87195 145.428 8.47053 145.428 8.06524C145.436 7.6523 145.44 7.26647 145.44 6.90777C145.44 5.44238 145.182 4.32226 144.649 3.5639C144.122 2.79391 143.372 2.40778 142.411 2.40778C142.079 2.40778 141.744 2.46855 141.407 2.5889C141.071 2.70076 140.745 2.85627 140.427 3.05496C140.11 3.25291 139.806 3.48228 139.513 3.7429C139.304 3.92388 139.109 4.1131 138.928 4.31057L139.015 2.81391L139.021 2.69981H138.907H136.734H136.62L136.627 2.81371C136.666 3.50606 136.697 4.1867 136.72 4.85563L136.72 4.85563L136.72 4.85694C136.751 5.51802 136.775 6.18299 136.79 6.85187L136.79 6.85187L136.79 6.85317C136.813 7.51422 136.829 8.18698 136.837 8.87144L136.837 8.87146C136.845 9.54853 136.848 10.249 136.848 10.9728C136.848 11.6967 136.845 12.3855 136.837 13.0391C136.829 13.6924 136.813 14.334 136.79 14.9638L136.79 14.9638L136.79 14.9652C136.775 15.5951 136.751 16.2289 136.72 16.8666H136.72L136.72 16.8679C136.697 17.4979 136.666 18.1592 136.627 18.8516L136.62 18.9655H136.734H138.895H139.009L139.003 18.8516C138.964 18.1588 138.929 17.4971 138.898 16.8666C138.867 16.2289 138.844 15.5951 138.828 14.9652C138.812 14.3349 138.801 13.6928 138.793 13.0391C138.785 12.3855 138.781 11.6967 138.781 10.9728C138.781 9.40303 138.804 7.85246 138.85 6.32115C139.022 6.04878 139.238 5.77872 139.498 5.51111C139.767 5.23473 140.047 4.98948 140.338 4.77516L140.338 4.77517L140.339 4.77407C140.63 4.55208 140.912 4.37732 141.184 4.24876C141.465 4.11973 141.694 4.06026 141.874 4.06026C142.223 4.06026 142.49 4.19315 142.687 4.46028C142.891 4.73701 143.05 5.16613 143.158 5.75894L143.158 5.75894L143.158 5.76053C143.274 6.34463 143.347 7.08985 143.378 7.99781Z" fill="#9A2143" stroke="#9A2143" stroke-width="0.215686"/>
<path d="M130.311 19.1007C130.63 19.0048 130.916 18.8763 131.166 18.7147L131.166 18.7147L131.168 18.7133C131.416 18.5457 131.64 18.3579 131.84 18.1498L131.84 18.1498L131.841 18.1483C131.967 18.0122 132.091 17.8762 132.214 17.7401L132.168 18.8532L132.164 18.9655H132.276H134.507H134.621L134.615 18.8513C134.576 18.19 134.541 17.5403 134.51 16.9023C134.486 16.2641 134.463 15.6531 134.44 15.0694C134.424 14.4859 134.412 13.9376 134.405 13.4243C134.397 12.9029 134.393 12.4362 134.393 12.0242V12.0231V12.0221V12.021V12.0199V12.0189V12.0178V12.0168V12.0157V12.0147V12.0136V12.0126V12.0115V12.0104V12.0094V12.0083V12.0072V12.0062V12.0051V12.004V12.003V12.0019V12.0008V11.9998V11.9987V11.9976V11.9965V11.9955V11.9944V11.9933V11.9922V11.9912V11.9901V11.989V11.9879V11.9868V11.9857V11.9847V11.9836V11.9825V11.9814V11.9803V11.9792V11.9781V11.977V11.9759V11.9748V11.9737V11.9727V11.9716V11.9705V11.9694V11.9683V11.9672V11.9661V11.965V11.9638V11.9627V11.9616V11.9605V11.9594V11.9583V11.9572V11.9561V11.955V11.9539V11.9528V11.9516V11.9505V11.9494V11.9483V11.9472V11.9461V11.9449V11.9438V11.9427V11.9416V11.9404V11.9393V11.9382V11.9371V11.9359V11.9348V11.9337V11.9325V11.9314V11.9303V11.9291V11.928V11.9269V11.9257V11.9246V11.9235V11.9223V11.9212V11.92V11.9189V11.9177V11.9166V11.9155V11.9143V11.9132V11.912V11.9109V11.9097V11.9086V11.9074V11.9062V11.9051V11.9039V11.9028V11.9016V11.9005V11.8993V11.8981V11.897V11.8958V11.8947V11.8935V11.8923V11.8912V11.89V11.8888V11.8877V11.8865V11.8853V11.8841V11.883V11.8818V11.8806V11.8794V11.8783V11.8771V11.8759V11.8747V11.8735V11.8724V11.8712V11.87V11.8688V11.8676V11.8664V11.8652V11.8641V11.8629V11.8617V11.8605V11.8593V11.8581V11.8569V11.8557V11.8545V11.8533V11.8521V11.8509V11.8497V11.8485V11.8473V11.8461V11.8449V11.8437V11.8425V11.8413V11.8401V11.8389V11.8376V11.8364V11.8352V11.834V11.8328V11.8316V11.8304V11.8291V11.8279V11.8267V11.8255V11.8243V11.823V11.8218V11.8206V11.8194V11.8181V11.8169V11.8157V11.8145V11.8132V11.812V11.8108V11.8095V11.8083V11.8071V11.8058V11.8046V11.8033V11.8021V11.8009V11.7996V11.7984V11.7971V11.7959V11.7947V11.7934V11.7922V11.7909V11.7897V11.7884V11.7872V11.7859V11.7847V11.7834V11.7821V11.7809V11.7796V11.7784V11.7771V11.7759V11.7746V11.7733V11.7721V11.7708V11.7695V11.7683V11.767V11.7657V11.7645V11.7632V11.7619V11.7607V11.7594V11.7581V11.7568V11.7556V11.7543V11.753V11.7517V11.7505V11.7492V11.7479V11.7466V11.7453V11.744V11.7428V11.7415V11.7402V11.7389V11.7376V11.7363V11.735V11.7337V11.7324V11.7311V11.7299V11.7286V11.7273V11.726V11.7247V11.7234V11.7221V11.7208V11.7195V11.7182V11.7168V11.7155V11.7142V11.7129V11.7116V11.7103V11.709V11.7077V11.7064V11.7051V11.7037V11.7024V11.7011V11.6998V11.6985V11.6972V11.6958V11.6945V11.6932V11.6919V11.6905V11.6892V11.6879V11.6866V11.6852V11.6839V11.6826V11.6812V11.6799V11.6786V11.6772V11.6759V11.6746V11.6732V11.6719V11.6706V11.6692V11.6679V11.6665V11.6652V11.6639V11.6625V11.6612V11.6598V11.6585V11.6571V11.6558V11.6544V11.6531V11.6517V11.6504V11.649V11.6476V11.6463V11.6449V11.6436V11.6422V11.6409V11.6395V11.6381V11.6368V11.6354V11.634V11.6327V11.6313V11.6299V11.6286V11.6272V11.6258V11.6244V11.6231V11.6217V11.6203V11.6189V11.6176V11.6162V11.6148V11.6134V11.612V11.6107V11.6093V11.6079V11.6065V11.6051V11.6037V11.6024V11.601V11.5996V11.5982V11.5968V11.5954V11.594V11.5926V11.5912V11.5898V11.5884V11.587V11.5856V11.5842V11.5828V11.5814V11.58V11.5786V11.5772V11.5758V11.5744V11.573V11.5716V11.5702V11.5687V11.5673V11.5659V11.5645V11.5631V11.5617V11.5603V11.5588V11.5574V11.556V11.5546V11.5531V11.5517V11.5503V11.5489V11.5474V11.546V11.5446V11.5432V11.5417V11.5403V11.5389V11.5374V11.536V11.5346V11.5331V11.5317V11.5303V11.5288V11.5274V11.5259V11.5245V11.523V11.5216V11.5202V11.5187V11.5173V11.5158V11.5144V11.5129V11.5115V11.51V11.5086V11.5071V11.5057V11.5042V11.5027V11.5013V11.4998V11.4984V11.4969V11.4954V11.494V11.4925V11.4911V11.4896V11.4881V11.4867V11.4852V11.4837V11.4822V11.4808V11.4793V11.4778V11.4764V11.4749V11.4734V11.4719V11.4704V11.469V11.4675V11.466V11.4645V11.463V11.4616V11.4601V11.4586V11.4571V11.4556V11.4541V11.4526V11.4511V11.4496V11.4482V11.4467V11.4452V11.4437V11.4422V11.4407V11.4392V11.4377V11.4362V11.4347V11.4332V11.4317V11.4302V11.4287V11.4271V11.4256V11.4241V11.4226V11.4211V11.4196V11.4181V11.4166V11.4151V11.4135V11.412V11.4105V11.409V11.4075V11.4059V11.4044V11.4029V11.4014V11.3999V11.3983V11.3968V11.3953V11.3937V11.3922V11.3907V11.3892V11.3876V11.3861V11.3846V11.383V11.3815V11.3799V11.3784V11.3769V11.3753V11.3738V11.3722V11.3707V11.3692V11.3676V11.3661V11.3645V11.363V11.3614V11.3599V11.3598C134.401 11.087 134.405 10.7988 134.405 10.4953C134.412 10.1915 134.416 9.88388 134.416 9.57242C134.424 9.26124 134.428 8.96928 134.428 8.69655C134.436 8.42485 134.44 8.18746 134.44 7.98451C134.447 7.78308 134.451 7.63788 134.451 7.55024C134.451 6.64861 134.365 5.87182 134.191 5.22168C134.024 4.57157 133.765 4.0344 133.41 3.61455C133.062 3.19449 132.622 2.88783 132.091 2.69471C131.57 2.50245 130.961 2.40778 130.267 2.40778C129.919 2.40778 129.591 2.43148 129.281 2.47912C128.974 2.5264 128.666 2.58941 128.359 2.66815L128.359 2.66815L128.359 2.66832C128.06 2.74699 127.761 2.84134 127.462 2.95133C127.165 3.05291 126.853 3.16612 126.525 3.29094L126.456 3.3174V3.39172V5.65788V5.88042L126.631 5.74252C126.925 5.51027 127.223 5.28967 127.525 5.08072L127.525 5.0804C127.833 4.86463 128.137 4.67619 128.437 4.51489C128.742 4.35443 129.047 4.22874 129.352 4.13748L129.352 4.13751L129.354 4.13675C129.655 4.03883 129.955 3.99017 130.255 3.99017C130.599 3.99017 130.897 4.05739 131.152 4.1885L131.152 4.1885L131.153 4.18905C131.407 4.31614 131.626 4.54905 131.806 4.90092L131.806 4.90092L131.807 4.90176C131.986 5.24535 132.124 5.71913 132.216 6.32822L132.216 6.32823L132.216 6.32954C132.313 6.917 132.363 7.65893 132.367 8.5568C131.301 8.73465 130.356 8.9646 129.531 9.24713L129.531 9.24723C128.688 9.53874 127.975 9.92211 127.395 10.3989L127.394 10.3994C126.821 10.8775 126.386 11.4597 126.091 12.1451C125.796 12.8316 125.65 13.6529 125.65 14.6057C125.65 15.354 125.741 16.0194 125.924 16.6006L125.924 16.601C126.106 17.1716 126.353 17.655 126.666 18.0487L126.666 18.0488L126.667 18.0498C126.988 18.4425 127.362 18.7447 127.79 18.9545L127.792 18.9555C128.227 19.1571 128.694 19.2576 129.192 19.2576C129.62 19.2576 129.994 19.2062 130.311 19.1007ZM130.311 19.1007C130.312 19.1005 130.312 19.1003 130.313 19.1002L130.278 18.9979L130.309 19.1012C130.31 19.101 130.31 19.1008 130.311 19.1007ZM128.771 11.628L128.772 11.6272C129.093 11.2532 129.55 10.9346 130.146 10.6745C130.716 10.4262 131.463 10.2422 132.39 10.1251C132.389 11.2434 132.382 12.2417 132.367 13.1203C132.351 14.0106 132.332 14.8478 132.309 15.632C132.144 15.8572 131.98 16.0859 131.815 16.3182C131.648 16.546 131.462 16.7548 131.257 16.9445C131.062 17.1238 130.842 17.2735 130.594 17.3936C130.362 17.5022 130.087 17.5584 129.764 17.5584C129.487 17.5584 129.243 17.4894 129.028 17.3531C128.81 17.2152 128.618 17.0175 128.454 16.7566C128.291 16.4884 128.162 16.1614 128.071 15.7735C127.987 15.3854 127.945 14.9496 127.945 14.4655C127.945 13.8965 128.003 13.3715 128.117 12.8902C128.23 12.4168 128.448 11.9965 128.771 11.628Z" fill="#9A2143" stroke="#9A2143" stroke-width="0.215686"/>
<path d="M120.526 2.81619L120.534 2.70075H120.419H118.211H118.095L118.103 2.81619C118.15 3.47675 118.185 4.15294 118.208 4.84476L118.208 4.84476L118.208 4.84597C118.239 5.53827 118.263 6.22667 118.278 6.91116C118.294 7.59608 118.306 8.2693 118.313 8.93083C118.321 9.59239 118.325 10.2228 118.325 10.8219C118.325 11.4211 118.321 12.0515 118.313 12.713C118.306 13.3746 118.294 14.0517 118.278 14.7444C118.263 15.4289 118.239 16.1212 118.208 16.8213H118.208L118.208 16.8224C118.185 17.5143 118.15 18.1905 118.103 18.851L118.095 18.9665H118.211H125.056H125.164V18.8586V17.4919V17.3841H125.056H120.428C120.376 16.2748 120.343 15.1655 120.328 14.0562C120.312 12.904 120.305 11.826 120.305 10.8219C120.305 10.2228 120.308 9.59239 120.316 8.93083C120.324 8.2693 120.336 7.59608 120.351 6.91116C120.367 6.22645 120.386 5.53785 120.41 4.84535C120.441 4.15336 120.48 3.47697 120.526 2.81619Z" fill="#9A2143" stroke="#9A2143" stroke-width="0.215686"/>
</svg>
