<svg width="38" height="24" viewBox="0 0 38 24" fill="none" xmlns="http://www.w3.org/2000/svg">
<path fill-rule="evenodd" clip-rule="evenodd" d="M34.9434 0H2.58234C1.1575 0 0 1.15848 0 2.58234V21.4177C0 22.8415 1.1575 24 2.58234 24H34.9443C36.3672 24 37.5267 22.8415 37.5267 21.4177V2.58234C37.5257 1.15848 36.3672 0 34.9434 0ZM12.0059 11.6151C11.9011 11.526 11.7914 11.4222 11.667 11.2998L11.6666 11.2994C11.1231 10.7677 10.3809 10.0415 8.98188 10.0415C7.5833 10.0415 6.83911 10.7682 6.29569 11.2989L6.29476 11.2998C5.81002 11.7728 5.55247 12 4.97666 12C4.40085 12 4.15799 11.7855 3.66248 11.3008C3.26489 10.9101 2.75371 10.4155 1.95854 10.1786V7.57075C2.06039 7.65986 2.16909 7.76367 2.29345 7.8851C2.83499 8.41684 3.57728 9.14444 4.97666 9.14444C6.37523 9.14444 7.11943 8.41768 7.66284 7.88699L7.66378 7.88608C8.14754 7.41407 8.40607 7.1859 8.98188 7.1859C9.55769 7.1859 9.81426 7.41211 10.298 7.88608C10.6976 8.27583 11.2068 8.77134 12.0059 9.00734V11.6151ZM2.29345 12.6992C2.83401 13.2309 3.5763 13.9585 4.97666 13.9585C6.37524 13.9585 7.1184 13.2328 7.66171 12.7022L7.66378 12.7002C8.14754 12.2272 8.40607 12 8.98188 12C9.55769 12 9.81426 12.2262 10.298 12.7002C10.6976 13.0899 11.2068 13.5854 12.0059 13.8214V16.4302C11.9011 16.3411 11.7914 16.2373 11.667 16.1149L11.6666 16.1145C11.1231 15.5828 10.3809 14.8565 8.98188 14.8565C7.5833 14.8565 6.83911 15.5833 6.2957 16.114L6.29476 16.1149C5.811 16.5869 5.55247 16.8151 4.97666 16.8151C4.40085 16.8151 4.15799 16.6006 3.66248 16.1159C3.26489 15.7251 2.75371 15.2306 1.95854 14.9936V12.3849C2.05941 12.473 2.16909 12.5778 2.29345 12.6992ZM2.58234 1.95854H12.0059V6.80202C11.9011 6.71291 11.7914 6.60911 11.667 6.4867L11.6666 6.48625C11.1231 5.95455 10.3809 5.22833 8.98188 5.22833C7.58331 5.22833 6.83911 5.9551 6.2957 6.48578L6.29476 6.4867C5.811 6.95871 5.55247 7.18688 4.97666 7.18688C4.40085 7.18688 4.15799 6.97242 3.66248 6.48768C3.26489 6.09695 2.75371 5.60242 1.95854 5.36543V2.58136C1.95854 2.23764 2.23764 1.95854 2.58234 1.95854ZM1.95854 21.4177V17.198C2.06039 17.2871 2.16909 17.3909 2.29345 17.5123C2.83499 18.0441 3.57728 18.7717 4.97666 18.7717C6.37523 18.7717 7.11943 18.0449 7.66284 17.5142L7.66378 17.5133C8.14754 17.0413 8.40607 16.8131 8.98188 16.8131C9.55769 16.8131 9.81426 17.0393 10.298 17.5133C10.6976 17.9031 11.2068 18.3986 12.0059 18.6346V22.0415H2.58234C2.23764 22.0415 1.95854 21.7624 1.95854 21.4177ZM35.5672 21.4177C35.5672 21.7624 35.2881 22.0415 34.9434 22.0415H13.9644V1.95854H34.9443C35.289 1.95854 35.5681 2.23764 35.5681 2.58234L35.5672 21.4177ZM28.6697 6.9968C28.2624 6.87151 27.8343 6.829 27.4105 6.87173C26.9867 6.91446 26.5755 7.04158 26.2009 7.2457C25.7212 7.51495 25.3023 7.88161 24.9707 8.32244C24.639 7.8811 24.2198 7.51412 23.7396 7.24483C23.3651 7.04099 22.9542 6.91408 22.5307 6.87149C22.1072 6.82889 21.6794 6.87146 21.2724 6.99672C19.5659 7.51029 18.4742 9.23942 18.6182 11.2016C18.6894 12.1658 19.0375 13.1355 19.6531 14.0847C20.4862 15.3695 21.7112 16.5708 23.3977 17.7563C24.8696 18.892 25.0755 18.8884 26.5447 17.7563C28.2313 16.5708 29.4563 15.3695 30.2893 14.0847C30.9049 13.1352 31.2531 12.1658 31.3235 11.2016C31.3321 11.0851 31.336 10.9693 31.336 10.8542C31.3356 9.03862 30.2749 7.47969 28.6697 6.9968ZM29.7541 11.1836C29.7193 11.5119 29.6433 11.8345 29.5278 12.1437C29.4814 12.2675 29.4305 12.3894 29.3753 12.5093L29.7541 11.1836Z" fill="white"/>
</svg>
