<svg width="38" height="24" viewBox="0 0 38 24" fill="none" xmlns="http://www.w3.org/2000/svg">
<path fill-rule="evenodd" clip-rule="evenodd" d="M35.1777 0H2.81672C1.39187 0 0.234375 1.15848 0.234375 2.58234V21.4177C0.234375 22.8415 1.39187 24 2.81672 24H35.1787C36.6016 24 37.7611 22.8415 37.7611 21.4177V2.58234C37.7601 1.15848 36.6016 0 35.1777 0ZM12.2402 11.6151C12.1355 11.526 12.0258 11.4222 11.9014 11.2998L11.901 11.2994C11.3575 10.7677 10.6152 10.0415 9.21626 10.0415C7.81768 10.0415 7.07348 10.7682 6.53007 11.2989L6.52913 11.2998C6.04439 11.7728 5.78685 12 5.21103 12C4.63522 12 4.39236 11.7855 3.89685 11.3008C3.49927 10.9101 2.98809 10.4155 2.19292 10.1786V7.57075C2.29476 7.65986 2.40346 7.76367 2.52783 7.8851C3.06937 8.41684 3.81166 9.14444 5.21103 9.14444C6.60961 9.14444 7.3538 8.41768 7.89722 7.88699L7.89816 7.88608C8.38192 7.41407 8.64044 7.1859 9.21626 7.1859C9.79207 7.1859 10.0486 7.41211 10.5324 7.88608C10.9319 8.27583 11.4412 8.77134 12.2402 9.00734V11.6151ZM2.52783 12.6992C3.06839 13.2309 3.81068 13.9585 5.21103 13.9585C6.60962 13.9585 7.35277 13.2328 7.89608 12.7022L7.89816 12.7002C8.38192 12.2272 8.64044 12 9.21626 12C9.79207 12 10.0486 12.2262 10.5324 12.7002C10.9319 13.0899 11.4412 13.5854 12.2402 13.8214V16.4302C12.1355 16.3411 12.0258 16.2373 11.9014 16.1149L11.901 16.1145C11.3575 15.5828 10.6152 14.8565 9.21626 14.8565C7.81768 14.8565 7.07349 15.5833 6.53007 16.114L6.52913 16.1149C6.04537 16.5869 5.78685 16.8151 5.21103 16.8151C4.63522 16.8151 4.39236 16.6006 3.89685 16.1159C3.49927 15.7251 2.98809 15.2306 2.19292 14.9936V12.3849C2.29378 12.473 2.40346 12.5778 2.52783 12.6992ZM2.81672 1.95854H12.2402V6.80202C12.1355 6.71291 12.0258 6.60911 11.9014 6.4867L11.901 6.48625C11.3575 5.95455 10.6152 5.22833 9.21626 5.22833C7.81768 5.22833 7.07349 5.9551 6.53007 6.48578L6.52913 6.4867C6.04537 6.95871 5.78685 7.18688 5.21103 7.18688C4.63522 7.18688 4.39236 6.97242 3.89685 6.48768C3.49927 6.09695 2.98809 5.60242 2.19292 5.36543V2.58136C2.19292 2.23764 2.47201 1.95854 2.81672 1.95854ZM2.19292 21.4177V17.198C2.29476 17.2871 2.40346 17.3909 2.52783 17.5123C3.06937 18.0441 3.81166 18.7717 5.21103 18.7717C6.60961 18.7717 7.3538 18.0449 7.89722 17.5142L7.89816 17.5133C8.38192 17.0413 8.64044 16.8131 9.21626 16.8131C9.79207 16.8131 10.0486 17.0393 10.5324 17.5133C10.9319 17.9031 11.4412 18.3986 12.2402 18.6346V22.0415H2.81672C2.47201 22.0415 2.19292 21.7624 2.19292 21.4177ZM35.8015 21.4177C35.8015 21.7624 35.5224 22.0415 35.1777 22.0415H14.1988V1.95854H35.1787C35.5234 1.95854 35.8025 2.23764 35.8025 2.58234L35.8015 21.4177ZM28.9041 6.9968C28.4967 6.87151 28.0687 6.829 27.6449 6.87173C27.2211 6.91446 26.8099 7.04158 26.4353 7.2457C25.9556 7.51495 25.5367 7.88161 25.2051 8.32244C24.8734 7.8811 24.4541 7.51412 23.9739 7.24483C23.5995 7.04099 23.1886 6.91408 22.7651 6.87149C22.3415 6.82889 21.9138 6.87146 21.5067 6.99672C19.8002 7.51029 18.7086 9.23942 18.8525 11.2016C18.9238 12.1658 19.2718 13.1355 19.8874 14.0847C20.7206 15.3695 21.9456 16.5708 23.6321 17.7563C25.104 18.892 25.3099 18.8884 26.7791 17.7563C28.4656 16.5708 29.6907 15.3695 30.5237 14.0847C31.1393 13.1352 31.4875 12.1658 31.5578 11.2016C31.5665 11.0851 31.5704 10.9693 31.5704 10.8542C31.57 9.03862 30.5092 7.47969 28.9041 6.9968ZM29.9885 11.1836C29.9537 11.5119 29.8777 11.8345 29.7622 12.1437C29.7158 12.2675 29.6649 12.3894 29.6097 12.5093L29.9885 11.1836Z" fill="#9A2143"/>
</svg>
